<svg width="189" height="24" viewBox="0 0 189 24" fill="none" xmlns="http://www.w3.org/2000/svg">
<g id="atlassian-black 1" clip-path="url(#clip0_44_1871)">
<g id="Group">
<path id="Vector" d="M7.35951 11.0031C7.29089 10.9139 7.2005 10.8439 7.09701 10.7998C6.99352 10.7556 6.88042 10.7388 6.76856 10.7509C6.6567 10.763 6.54984 10.8037 6.45824 10.8691C6.36664 10.9344 6.29337 11.0222 6.24547 11.124L0.59497 22.4198C0.543848 22.5227 0.519813 22.6369 0.525141 22.7517C0.530468 22.8665 0.564981 22.978 0.625416 23.0757C0.68585 23.1733 0.770208 23.254 0.870511 23.31C0.970813 23.366 1.08374 23.3955 1.19862 23.3957H9.06511C9.19109 23.3988 9.31525 23.3653 9.42256 23.2992C9.52986 23.2332 9.61569 23.1374 9.66963 23.0235C11.3657 19.5173 10.3372 14.1855 7.35865 11.0023L7.35951 11.0031Z" fill="#050038"/>
<path id="Vector_2" d="M11.5019 0.727873C10.0944 2.89386 9.27414 5.38858 9.12168 7.96723C8.96922 10.5459 9.48979 13.1199 10.6323 15.4366L14.4252 23.0216C14.4813 23.1337 14.5675 23.2279 14.6741 23.2938C14.7807 23.3597 14.9035 23.3946 15.0289 23.3947H22.8936C23.0087 23.3947 23.1219 23.3653 23.2224 23.3093C23.3229 23.2533 23.4075 23.1726 23.468 23.0747C23.5286 22.9769 23.5632 22.8652 23.5684 22.7502C23.5737 22.6353 23.5495 22.5209 23.4981 22.4179L12.6514 0.723555C12.5989 0.615621 12.5171 0.524685 12.4153 0.46121C12.3134 0.397735 12.1957 0.364299 12.0757 0.364751C11.9557 0.365202 11.8383 0.399521 11.737 0.46376C11.6356 0.527999 11.5544 0.619548 11.5028 0.727873H11.5019ZM103.756 9.78526C103.756 12.5833 105.053 14.8027 110.129 15.7838C113.157 16.4194 113.791 16.9082 113.791 17.9169C113.791 18.8979 113.156 19.5318 111.023 19.5318C108.445 19.4858 105.919 18.8025 103.67 17.5429V22.0984C105.198 22.848 107.216 23.6848 110.965 23.6848C116.271 23.6848 118.376 21.3186 118.376 17.802L103.756 9.78526ZM118.376 17.802C118.376 14.4858 116.617 12.9287 111.657 11.8622C108.918 11.256 108.255 10.6506 108.255 9.78526C108.255 8.69108 109.235 8.2282 111.051 8.2282C113.243 8.2282 115.406 8.89144 117.453 9.81462V5.46038C115.49 4.5667 113.352 4.12322 111.195 4.16239C106.294 4.16239 103.756 6.29634 103.756 9.78526L118.376 17.802ZM171.921 4.44997V23.3955H175.957V8.9493L177.659 12.7837L183.369 23.3955H188.444V4.44997H184.407V16.6768L182.878 13.13L178.293 4.45083H171.921V4.44997ZM146.245 4.44997H141.833V23.3955H146.245V4.44997ZM136.744 17.8012C136.744 14.4849 134.985 12.9279 130.025 11.8613C127.286 11.2568 126.623 10.6506 126.623 9.78526C126.623 8.69108 127.603 8.2282 129.42 8.2282C131.612 8.2282 133.774 8.89144 135.822 9.81462V5.46038C133.859 4.5667 131.721 4.12322 129.564 4.16239C124.661 4.16239 122.124 6.29634 122.124 9.78526C122.124 12.5833 123.422 14.8027 128.497 15.7838C131.525 16.4194 132.159 16.9082 132.159 17.9169C132.159 18.8979 131.524 19.5318 129.39 19.5318C126.813 19.4856 124.287 18.8023 122.038 17.5429V22.0984C123.566 22.848 125.585 23.6848 129.333 23.6848C134.639 23.6848 136.744 21.3186 136.744 17.802V17.8012ZM69.4837 4.44997V23.3955H78.5515L79.979 19.3012H73.9243V4.44997H69.4837ZM51.5667 4.44997V8.54514H56.4693V23.3955H60.91V8.54514H66.1572V4.44997H51.5667ZM45.1286 4.44997H39.3097L32.7032 23.3955H37.7483L38.6845 20.2054C40.9911 20.8827 43.4438 20.8827 45.7504 20.2054L46.6874 23.3955H51.7334L45.1286 4.44997ZM42.2183 16.7882C41.3969 16.7881 40.5797 16.6706 39.7916 16.4393L42.2183 8.1712L44.6467 16.4419C43.8582 16.6724 43.0407 16.789 42.2192 16.7882H42.2183ZM94.1851 4.44997H88.3654L81.7589 23.3955H86.8057L87.7419 20.2054C90.0485 20.8827 92.5012 20.8827 94.8078 20.2054L95.7448 23.3955H100.791L94.1851 4.44997ZM91.2757 16.7882C90.4537 16.7882 89.636 16.6708 88.8473 16.4393L91.2757 8.1712L93.7033 16.4419C92.9147 16.6724 92.0973 16.7891 91.2757 16.7882ZM162.142 4.44997H156.323L149.717 23.3955H154.763L155.7 20.2054C158.007 20.8827 160.459 20.8827 162.766 20.2054L163.702 23.3955H168.749L162.142 4.44997ZM159.231 16.7882C158.409 16.7882 157.592 16.6708 156.804 16.4393L159.231 8.1712L161.659 16.4419C160.87 16.6724 160.053 16.7891 159.231 16.7882Z" fill="#050038"/>
</g>
</g>
<defs>
<clipPath id="clip0_44_1871">
<rect width="188.264" height="23.3171" fill="white" transform="translate(0.524414 0.365234)"/>
</clipPath>
</defs>
</svg>
