<svg width="151" height="160" viewBox="0 0 151 160" fill="none" xmlns="http://www.w3.org/2000/svg">
<circle cx="2" cy="2" r="2" transform="matrix(0.00572777 -0.999984 -0.999984 -0.00572777 4.20099 159)" fill="#3370FF" fill-opacity="0.15"/>
<circle cx="2" cy="2" r="2" transform="matrix(0.00572777 -0.999984 -0.999984 -0.00572777 17.9999 159.023)" fill="#3370FF" fill-opacity="0.15"/>
<circle cx="2" cy="2" r="2" transform="matrix(-0.99997 -0.00777117 -0.00777117 0.99997 137.031 154.629)" fill="#3370FF" fill-opacity="0.15"/>
<circle cx="2" cy="2" r="2" transform="matrix(-0.99997 -0.00777117 -0.00777117 0.99997 137.082 140.83)" fill="#3370FF" fill-opacity="0.15"/>
<circle cx="2" cy="2" r="2" transform="matrix(-0.99997 -0.00777117 -0.00777117 0.99997 150.031 154.629)" fill="#3370FF" fill-opacity="0.15"/>
<circle cx="2" cy="2" r="2" transform="matrix(-0.99997 -0.00777117 -0.00777117 0.99997 150.082 140.83)" fill="#3370FF" fill-opacity="0.15"/>
<circle cx="2" cy="2" r="2" transform="matrix(0.00572777 -0.999984 -0.999984 -0.00572777 4.20099 18.9999)" fill="#3370FF" fill-opacity="0.15"/>
<circle cx="2" cy="2" r="2" transform="matrix(0.00572777 -0.999984 -0.999984 -0.00572777 17.9999 19.0228)" fill="#3370FF" fill-opacity="0.15"/>
<circle cx="2" cy="2" r="2" transform="matrix(0.00572777 -0.999984 -0.999984 -0.00572777 4.20099 4.99988)" fill="#3370FF" fill-opacity="0.15"/>
<circle cx="2" cy="2" r="2" transform="matrix(0.00572777 -0.999984 -0.999984 -0.00572777 17.9999 5.02283)" fill="#3370FF" fill-opacity="0.15"/>
<circle cx="2" cy="2" r="2" transform="matrix(0.00572777 -0.999984 -0.999984 -0.00572777 3.99994 145.023)" fill="#3370FF" fill-opacity="0.15"/>
<circle cx="2" cy="2" r="2" transform="matrix(0.00572777 -0.999984 -0.999984 -0.00572777 17.7989 145.046)" fill="#3370FF" fill-opacity="0.15"/>
<circle cx="2" cy="2" r="2" transform="matrix(0.00572777 -0.999984 -0.999984 -0.00572777 3.99994 131.023)" fill="#3370FF" fill-opacity="0.15"/>
<circle cx="2" cy="2" r="2" transform="matrix(0.00572777 -0.999984 -0.999984 -0.00572777 17.7989 131.046)" fill="#3370FF" fill-opacity="0.15"/>
<circle cx="2" cy="2" r="2" transform="matrix(0.00572777 -0.999984 -0.999984 -0.00572777 3.99994 117.023)" fill="#3370FF" fill-opacity="0.15"/>
<circle cx="2" cy="2" r="2" transform="matrix(0.00572777 -0.999984 -0.999984 -0.00572777 17.7989 117.046)" fill="#3370FF" fill-opacity="0.15"/>
<circle cx="2" cy="2" r="2" transform="matrix(0.00572777 -0.999984 -0.999984 -0.00572777 3.99994 103.023)" fill="#3370FF" fill-opacity="0.15"/>
<circle cx="2" cy="2" r="2" transform="matrix(0.00572777 -0.999984 -0.999984 -0.00572777 17.7989 103.046)" fill="#3370FF" fill-opacity="0.15"/>
<circle cx="2" cy="2" r="2" transform="matrix(0.00572777 -0.999984 -0.999984 -0.00572777 3.99994 89.0228)" fill="#3370FF" fill-opacity="0.15"/>
<circle cx="2" cy="2" r="2" transform="matrix(0.00572777 -0.999984 -0.999984 -0.00572777 17.7989 89.0458)" fill="#3370FF" fill-opacity="0.15"/>
<circle cx="2" cy="2" r="2" transform="matrix(0.00572777 -0.999984 -0.999984 -0.00572777 3.99994 75.0228)" fill="#3370FF" fill-opacity="0.15"/>
<circle cx="2" cy="2" r="2" transform="matrix(0.00572777 -0.999984 -0.999984 -0.00572777 17.7989 75.0458)" fill="#3370FF" fill-opacity="0.15"/>
<circle cx="2" cy="2" r="2" transform="matrix(0.00572777 -0.999984 -0.999984 -0.00572777 3.99994 61.0228)" fill="#3370FF" fill-opacity="0.15"/>
<circle cx="2" cy="2" r="2" transform="matrix(0.00572777 -0.999984 -0.999984 -0.00572777 17.7989 61.0458)" fill="#3370FF" fill-opacity="0.15"/>
<circle cx="2" cy="2" r="2" transform="matrix(0.00572777 -0.999984 -0.999984 -0.00572777 3.99994 47.0228)" fill="#3370FF" fill-opacity="0.15"/>
<circle cx="2" cy="2" r="2" transform="matrix(0.00572777 -0.999984 -0.999984 -0.00572777 17.7989 47.0458)" fill="#3370FF" fill-opacity="0.15"/>
<circle cx="2" cy="2" r="2" transform="matrix(0.00572777 -0.999984 -0.999984 -0.00572777 3.99994 33.0228)" fill="#3370FF" fill-opacity="0.15"/>
<circle cx="2" cy="2" r="2" transform="matrix(0.00572777 -0.999984 -0.999984 -0.00572777 17.7989 33.0458)" fill="#3370FF" fill-opacity="0.15"/>
<circle cx="2" cy="2" r="2" transform="matrix(0.00572777 -0.999984 -0.999984 -0.00572777 56.9999 159.023)" fill="#3370FF" fill-opacity="0.15"/>
<circle cx="2" cy="2" r="2" transform="matrix(0.00572777 -0.999984 -0.999984 -0.00572777 70.7989 159.046)" fill="#3370FF" fill-opacity="0.15"/>
<circle cx="2" cy="2" r="2" transform="matrix(-0.99997 -0.00777117 -0.00777117 0.99997 137.162 101.83)" fill="#3370FF" fill-opacity="0.15"/>
<circle cx="2" cy="2" r="2" transform="matrix(-0.99997 -0.00777117 -0.00777117 0.99997 137.213 88.0312)" fill="#3370FF" fill-opacity="0.15"/>
<circle cx="2" cy="2" r="2" transform="matrix(-0.99997 -0.00777117 -0.00777117 0.99997 150.162 101.83)" fill="#3370FF" fill-opacity="0.15"/>
<circle cx="2" cy="2" r="2" transform="matrix(-0.99997 -0.00777117 -0.00777117 0.99997 150.213 88.0312)" fill="#3370FF" fill-opacity="0.15"/>
<circle cx="2" cy="2" r="2" transform="matrix(0.00572777 -0.999984 -0.999984 -0.00572777 56.9999 19.0228)" fill="#3370FF" fill-opacity="0.15"/>
<circle cx="2" cy="2" r="2" transform="matrix(0.00572777 -0.999984 -0.999984 -0.00572777 70.7989 19.0458)" fill="#3370FF" fill-opacity="0.15"/>
<circle cx="2" cy="2" r="2" transform="matrix(0.00572777 -0.999984 -0.999984 -0.00572777 56.9999 5.02283)" fill="#3370FF" fill-opacity="0.15"/>
<circle cx="2" cy="2" r="2" transform="matrix(0.00572777 -0.999984 -0.999984 -0.00572777 70.7989 5.04578)" fill="#3370FF" fill-opacity="0.15"/>
<circle cx="2" cy="2" r="2" transform="matrix(0.00572777 -0.999984 -0.999984 -0.00572777 56.7989 145.046)" fill="#3370FF" fill-opacity="0.15"/>
<circle cx="2" cy="2" r="2" transform="matrix(0.00572777 -0.999984 -0.999984 -0.00572777 70.5978 145.069)" fill="#3370FF" fill-opacity="0.15"/>
<circle cx="2" cy="2" r="2" transform="matrix(0.00572777 -0.999984 -0.999984 -0.00572777 56.7989 131.046)" fill="#3370FF" fill-opacity="0.15"/>
<circle cx="2" cy="2" r="2" transform="matrix(0.00572777 -0.999984 -0.999984 -0.00572777 70.5978 131.069)" fill="#3370FF" fill-opacity="0.15"/>
<circle cx="2" cy="2" r="2" transform="matrix(0.00572777 -0.999984 -0.999984 -0.00572777 56.7989 117.046)" fill="#3370FF" fill-opacity="0.15"/>
<circle cx="2" cy="2" r="2" transform="matrix(0.00572777 -0.999984 -0.999984 -0.00572777 70.5978 117.069)" fill="#3370FF" fill-opacity="0.15"/>
<circle cx="2" cy="2" r="2" transform="matrix(0.00572777 -0.999984 -0.999984 -0.00572777 56.7989 103.046)" fill="#3370FF" fill-opacity="0.15"/>
<circle cx="2" cy="2" r="2" transform="matrix(0.00572777 -0.999984 -0.999984 -0.00572777 70.5978 103.069)" fill="#3370FF" fill-opacity="0.15"/>
<circle cx="2" cy="2" r="2" transform="matrix(0.00572777 -0.999984 -0.999984 -0.00572777 56.7989 89.0458)" fill="#3370FF" fill-opacity="0.15"/>
<circle cx="2" cy="2" r="2" transform="matrix(0.00572777 -0.999984 -0.999984 -0.00572777 70.5978 89.0687)" fill="#3370FF" fill-opacity="0.15"/>
<circle cx="2" cy="2" r="2" transform="matrix(0.00572777 -0.999984 -0.999984 -0.00572777 56.7989 75.0458)" fill="#3370FF" fill-opacity="0.15"/>
<circle cx="2" cy="2" r="2" transform="matrix(0.00572777 -0.999984 -0.999984 -0.00572777 70.5978 75.0687)" fill="#3370FF" fill-opacity="0.15"/>
<circle cx="2" cy="2" r="2" transform="matrix(0.00572777 -0.999984 -0.999984 -0.00572777 56.7989 61.0458)" fill="#3370FF" fill-opacity="0.15"/>
<circle cx="2" cy="2" r="2" transform="matrix(0.00572777 -0.999984 -0.999984 -0.00572777 70.5978 61.0687)" fill="#3370FF" fill-opacity="0.15"/>
<circle cx="2" cy="2" r="2" transform="matrix(0.00572777 -0.999984 -0.999984 -0.00572777 56.7989 47.0458)" fill="#3370FF" fill-opacity="0.15"/>
<circle cx="2" cy="2" r="2" transform="matrix(0.00572777 -0.999984 -0.999984 -0.00572777 70.5978 47.0687)" fill="#3370FF" fill-opacity="0.15"/>
<circle cx="2" cy="2" r="2" transform="matrix(0.00572777 -0.999984 -0.999984 -0.00572777 56.7989 33.0458)" fill="#3370FF" fill-opacity="0.15"/>
<circle cx="2" cy="2" r="2" transform="matrix(0.00572777 -0.999984 -0.999984 -0.00572777 70.5978 33.0687)" fill="#3370FF" fill-opacity="0.15"/>
<circle cx="2" cy="2" r="2" transform="matrix(0.00572777 -0.999984 -0.999984 -0.00572777 29.9999 159.023)" fill="#3370FF" fill-opacity="0.15"/>
<circle cx="2" cy="2" r="2" transform="matrix(0.00572777 -0.999984 -0.999984 -0.00572777 43.7989 159.046)" fill="#3370FF" fill-opacity="0.15"/>
<circle cx="2" cy="2" r="2" transform="matrix(-0.99997 -0.00777117 -0.00777117 0.99997 137.107 128.83)" fill="#3370FF" fill-opacity="0.15"/>
<circle cx="2" cy="2" r="2" transform="matrix(-0.99997 -0.00777117 -0.00777117 0.99997 137.158 115.031)" fill="#3370FF" fill-opacity="0.15"/>
<circle cx="2" cy="2" r="2" transform="matrix(-0.99997 -0.00777117 -0.00777117 0.99997 150.107 128.83)" fill="#3370FF" fill-opacity="0.15"/>
<circle cx="2" cy="2" r="2" transform="matrix(-0.99997 -0.00777117 -0.00777117 0.99997 150.158 115.031)" fill="#3370FF" fill-opacity="0.15"/>
<circle cx="2" cy="2" r="2" transform="matrix(0.00572777 -0.999984 -0.999984 -0.00572777 29.9999 19.0228)" fill="#3370FF" fill-opacity="0.15"/>
<circle cx="2" cy="2" r="2" transform="matrix(0.00572777 -0.999984 -0.999984 -0.00572777 43.7989 19.0458)" fill="#3370FF" fill-opacity="0.15"/>
<circle cx="2" cy="2" r="2" transform="matrix(0.00572777 -0.999984 -0.999984 -0.00572777 29.9999 5.02283)" fill="#3370FF" fill-opacity="0.15"/>
<circle cx="2" cy="2" r="2" transform="matrix(0.00572777 -0.999984 -0.999984 -0.00572777 43.7989 5.04578)" fill="#3370FF" fill-opacity="0.15"/>
<circle cx="2" cy="2" r="2" transform="matrix(0.00572777 -0.999984 -0.999984 -0.00572777 29.7989 145.046)" fill="#3370FF" fill-opacity="0.15"/>
<circle cx="2" cy="2" r="2" transform="matrix(0.00572777 -0.999984 -0.999984 -0.00572777 43.5978 145.069)" fill="#3370FF" fill-opacity="0.15"/>
<circle cx="2" cy="2" r="2" transform="matrix(0.00572777 -0.999984 -0.999984 -0.00572777 29.7989 131.046)" fill="#3370FF" fill-opacity="0.15"/>
<circle cx="2" cy="2" r="2" transform="matrix(0.00572777 -0.999984 -0.999984 -0.00572777 43.5978 131.069)" fill="#3370FF" fill-opacity="0.15"/>
<circle cx="2" cy="2" r="2" transform="matrix(0.00572777 -0.999984 -0.999984 -0.00572777 29.7989 117.046)" fill="#3370FF" fill-opacity="0.15"/>
<circle cx="2" cy="2" r="2" transform="matrix(0.00572777 -0.999984 -0.999984 -0.00572777 43.5978 117.069)" fill="#3370FF" fill-opacity="0.15"/>
<circle cx="2" cy="2" r="2" transform="matrix(0.00572777 -0.999984 -0.999984 -0.00572777 29.7989 103.046)" fill="#3370FF" fill-opacity="0.15"/>
<circle cx="2" cy="2" r="2" transform="matrix(0.00572777 -0.999984 -0.999984 -0.00572777 43.5978 103.069)" fill="#3370FF" fill-opacity="0.15"/>
<circle cx="2" cy="2" r="2" transform="matrix(0.00572777 -0.999984 -0.999984 -0.00572777 29.7989 89.0458)" fill="#3370FF" fill-opacity="0.15"/>
<circle cx="2" cy="2" r="2" transform="matrix(0.00572777 -0.999984 -0.999984 -0.00572777 43.5978 89.0687)" fill="#3370FF" fill-opacity="0.15"/>
<circle cx="2" cy="2" r="2" transform="matrix(0.00572777 -0.999984 -0.999984 -0.00572777 29.7989 75.0458)" fill="#3370FF" fill-opacity="0.15"/>
<circle cx="2" cy="2" r="2" transform="matrix(0.00572777 -0.999984 -0.999984 -0.00572777 43.5978 75.0687)" fill="#3370FF" fill-opacity="0.15"/>
<circle cx="2" cy="2" r="2" transform="matrix(0.00572777 -0.999984 -0.999984 -0.00572777 29.7989 61.0458)" fill="#3370FF" fill-opacity="0.15"/>
<circle cx="2" cy="2" r="2" transform="matrix(0.00572777 -0.999984 -0.999984 -0.00572777 43.5978 61.0687)" fill="#3370FF" fill-opacity="0.15"/>
<circle cx="2" cy="2" r="2" transform="matrix(0.00572777 -0.999984 -0.999984 -0.00572777 29.7989 47.0458)" fill="#3370FF" fill-opacity="0.15"/>
<circle cx="2" cy="2" r="2" transform="matrix(0.00572777 -0.999984 -0.999984 -0.00572777 43.5978 47.0687)" fill="#3370FF" fill-opacity="0.15"/>
<circle cx="2" cy="2" r="2" transform="matrix(0.00572777 -0.999984 -0.999984 -0.00572777 29.7989 33.0458)" fill="#3370FF" fill-opacity="0.15"/>
<circle cx="2" cy="2" r="2" transform="matrix(0.00572777 -0.999984 -0.999984 -0.00572777 43.5978 33.0687)" fill="#3370FF" fill-opacity="0.15"/>
<circle cx="2" cy="2" r="2" transform="matrix(0.00572777 -0.999984 -0.999984 -0.00572777 82.7989 159.046)" fill="#3370FF" fill-opacity="0.15"/>
<circle cx="2" cy="2" r="2" transform="matrix(0.00572777 -0.999984 -0.999984 -0.00572777 96.5978 159.069)" fill="#3370FF" fill-opacity="0.15"/>
<circle cx="2" cy="2" r="2" transform="matrix(-0.99997 -0.00777117 -0.00777117 0.99997 137.238 76.031)" fill="#3370FF" fill-opacity="0.15"/>
<circle cx="2" cy="2" r="2" transform="matrix(-0.99997 -0.00777117 -0.00777117 0.99997 137.289 62.2321)" fill="#3370FF" fill-opacity="0.15"/>
<circle cx="2" cy="2" r="2" transform="matrix(-0.99997 -0.00777117 -0.00777117 0.99997 150.238 76.031)" fill="#3370FF" fill-opacity="0.15"/>
<circle cx="2" cy="2" r="2" transform="matrix(-0.99997 -0.00777117 -0.00777117 0.99997 150.289 62.2321)" fill="#3370FF" fill-opacity="0.15"/>
<circle cx="2" cy="2" r="2" transform="matrix(0.00572777 -0.999984 -0.999984 -0.00572777 82.7989 19.0458)" fill="#3370FF" fill-opacity="0.15"/>
<circle cx="2" cy="2" r="2" transform="matrix(0.00572777 -0.999984 -0.999984 -0.00572777 96.5978 19.0687)" fill="#3370FF" fill-opacity="0.15"/>
<circle cx="2" cy="2" r="2" transform="matrix(0.00572777 -0.999984 -0.999984 -0.00572777 82.7989 5.04578)" fill="#3370FF" fill-opacity="0.15"/>
<circle cx="2" cy="2" r="2" transform="matrix(0.00572777 -0.999984 -0.999984 -0.00572777 96.5978 5.06873)" fill="#3370FF" fill-opacity="0.15"/>
<circle cx="2" cy="2" r="2" transform="matrix(0.00572777 -0.999984 -0.999984 -0.00572777 82.5978 145.069)" fill="#3370FF" fill-opacity="0.15"/>
<circle cx="2" cy="2" r="2" transform="matrix(0.00572777 -0.999984 -0.999984 -0.00572777 96.3968 145.092)" fill="#3370FF" fill-opacity="0.15"/>
<circle cx="2" cy="2" r="2" transform="matrix(0.00572777 -0.999984 -0.999984 -0.00572777 82.5978 131.069)" fill="#3370FF" fill-opacity="0.15"/>
<circle cx="2" cy="2" r="2" transform="matrix(0.00572777 -0.999984 -0.999984 -0.00572777 96.3968 131.092)" fill="#3370FF" fill-opacity="0.15"/>
<circle cx="2" cy="2" r="2" transform="matrix(0.00572777 -0.999984 -0.999984 -0.00572777 82.5978 117.069)" fill="#3370FF" fill-opacity="0.15"/>
<circle cx="2" cy="2" r="2" transform="matrix(0.00572777 -0.999984 -0.999984 -0.00572777 96.3968 117.092)" fill="#3370FF" fill-opacity="0.15"/>
<circle cx="2" cy="2" r="2" transform="matrix(0.00572777 -0.999984 -0.999984 -0.00572777 82.5978 103.069)" fill="#3370FF" fill-opacity="0.15"/>
<circle cx="2" cy="2" r="2" transform="matrix(0.00572777 -0.999984 -0.999984 -0.00572777 96.3968 103.092)" fill="#3370FF" fill-opacity="0.15"/>
<circle cx="2" cy="2" r="2" transform="matrix(0.00572777 -0.999984 -0.999984 -0.00572777 82.5978 89.0687)" fill="#3370FF" fill-opacity="0.15"/>
<circle cx="2" cy="2" r="2" transform="matrix(0.00572777 -0.999984 -0.999984 -0.00572777 96.3968 89.0917)" fill="#3370FF" fill-opacity="0.15"/>
<circle cx="2" cy="2" r="2" transform="matrix(0.00572777 -0.999984 -0.999984 -0.00572777 82.5978 75.0687)" fill="#3370FF" fill-opacity="0.15"/>
<circle cx="2" cy="2" r="2" transform="matrix(0.00572777 -0.999984 -0.999984 -0.00572777 96.3968 75.0917)" fill="#3370FF" fill-opacity="0.15"/>
<circle cx="2" cy="2" r="2" transform="matrix(0.00572777 -0.999984 -0.999984 -0.00572777 82.5978 61.0687)" fill="#3370FF" fill-opacity="0.15"/>
<circle cx="2" cy="2" r="2" transform="matrix(0.00572777 -0.999984 -0.999984 -0.00572777 96.3968 61.0917)" fill="#3370FF" fill-opacity="0.15"/>
<circle cx="2" cy="2" r="2" transform="matrix(0.00572777 -0.999984 -0.999984 -0.00572777 82.5978 47.0687)" fill="#3370FF" fill-opacity="0.15"/>
<circle cx="2" cy="2" r="2" transform="matrix(0.00572777 -0.999984 -0.999984 -0.00572777 96.3968 47.0917)" fill="#3370FF" fill-opacity="0.15"/>
<circle cx="2" cy="2" r="2" transform="matrix(0.00572777 -0.999984 -0.999984 -0.00572777 82.5978 33.0687)" fill="#3370FF" fill-opacity="0.15"/>
<circle cx="2" cy="2" r="2" transform="matrix(0.00572777 -0.999984 -0.999984 -0.00572777 96.3968 33.0917)" fill="#3370FF" fill-opacity="0.15"/>
<circle cx="2" cy="2" r="2" transform="matrix(0.00572777 -0.999984 -0.999984 -0.00572777 110 159.023)" fill="#3370FF" fill-opacity="0.15"/>
<circle cx="2" cy="2" r="2" transform="matrix(0.00572777 -0.999984 -0.999984 -0.00572777 123.799 159.046)" fill="#3370FF" fill-opacity="0.15"/>
<circle cx="2" cy="2" r="2" transform="matrix(-0.99997 -0.00777117 -0.00777117 0.99997 137.27 48.8301)" fill="#3370FF" fill-opacity="0.15"/>
<circle cx="2" cy="2" r="2" transform="matrix(-0.99997 -0.00777117 -0.00777117 0.99997 137.321 35.0312)" fill="#3370FF" fill-opacity="0.15"/>
<circle cx="2" cy="2" r="2" transform="matrix(-0.99997 -0.00777117 -0.00777117 0.99997 150.27 48.8301)" fill="#3370FF" fill-opacity="0.15"/>
<circle cx="2" cy="2" r="2" transform="matrix(-0.99997 -0.00777117 -0.00777117 0.99997 150.321 35.0312)" fill="#3370FF" fill-opacity="0.15"/>
<circle cx="2" cy="2" r="2" transform="matrix(0.00572777 -0.999984 -0.999984 -0.00572777 110 19.0228)" fill="#3370FF" fill-opacity="0.15"/>
<circle cx="2" cy="2" r="2" transform="matrix(0.00572777 -0.999984 -0.999984 -0.00572777 123.799 19.0458)" fill="#3370FF" fill-opacity="0.15"/>
<circle cx="2" cy="2" r="2" transform="matrix(0.00572777 -0.999984 -0.999984 -0.00572777 110 5.02283)" fill="#3370FF" fill-opacity="0.15"/>
<circle cx="2" cy="2" r="2" transform="matrix(0.00572777 -0.999984 -0.999984 -0.00572777 123.799 5.04578)" fill="#3370FF" fill-opacity="0.15"/>
<circle cx="2" cy="2" r="2" transform="matrix(0.00572777 -0.999984 -0.999984 -0.00572777 109.799 145.046)" fill="#3370FF" fill-opacity="0.15"/>
<circle cx="2" cy="2" r="2" transform="matrix(0.00572777 -0.999984 -0.999984 -0.00572777 123.598 145.069)" fill="#3370FF" fill-opacity="0.15"/>
<circle cx="2" cy="2" r="2" transform="matrix(0.00572777 -0.999984 -0.999984 -0.00572777 109.799 131.046)" fill="#3370FF" fill-opacity="0.15"/>
<circle cx="2" cy="2" r="2" transform="matrix(0.00572777 -0.999984 -0.999984 -0.00572777 123.598 131.069)" fill="#3370FF" fill-opacity="0.15"/>
<circle cx="2" cy="2" r="2" transform="matrix(0.00572777 -0.999984 -0.999984 -0.00572777 109.799 117.046)" fill="#3370FF" fill-opacity="0.15"/>
<circle cx="2" cy="2" r="2" transform="matrix(0.00572777 -0.999984 -0.999984 -0.00572777 123.598 117.069)" fill="#3370FF" fill-opacity="0.15"/>
<circle cx="2" cy="2" r="2" transform="matrix(0.00572777 -0.999984 -0.999984 -0.00572777 109.799 103.046)" fill="#3370FF" fill-opacity="0.15"/>
<circle cx="2" cy="2" r="2" transform="matrix(0.00572777 -0.999984 -0.999984 -0.00572777 123.598 103.069)" fill="#3370FF" fill-opacity="0.15"/>
<circle cx="2" cy="2" r="2" transform="matrix(0.00572777 -0.999984 -0.999984 -0.00572777 109.799 89.0458)" fill="#3370FF" fill-opacity="0.15"/>
<circle cx="2" cy="2" r="2" transform="matrix(0.00572777 -0.999984 -0.999984 -0.00572777 123.598 89.0687)" fill="#3370FF" fill-opacity="0.15"/>
<circle cx="2" cy="2" r="2" transform="matrix(0.00572777 -0.999984 -0.999984 -0.00572777 109.799 75.0458)" fill="#3370FF" fill-opacity="0.15"/>
<circle cx="2" cy="2" r="2" transform="matrix(0.00572777 -0.999984 -0.999984 -0.00572777 123.598 75.0687)" fill="#3370FF" fill-opacity="0.15"/>
<circle cx="2" cy="2" r="2" transform="matrix(0.00572777 -0.999984 -0.999984 -0.00572777 109.799 61.0458)" fill="#3370FF" fill-opacity="0.15"/>
<circle cx="2" cy="2" r="2" transform="matrix(0.00572777 -0.999984 -0.999984 -0.00572777 123.598 61.0687)" fill="#3370FF" fill-opacity="0.15"/>
<circle cx="2" cy="2" r="2" transform="matrix(0.00572777 -0.999984 -0.999984 -0.00572777 109.799 47.0458)" fill="#3370FF" fill-opacity="0.15"/>
<circle cx="2" cy="2" r="2" transform="matrix(0.00572777 -0.999984 -0.999984 -0.00572777 123.598 47.0687)" fill="#3370FF" fill-opacity="0.15"/>
<circle cx="2" cy="2" r="2" transform="matrix(0.00572777 -0.999984 -0.999984 -0.00572777 109.799 33.0458)" fill="#3370FF" fill-opacity="0.15"/>
<circle cx="2" cy="2" r="2" transform="matrix(0.00572777 -0.999984 -0.999984 -0.00572777 123.598 33.0687)" fill="#3370FF" fill-opacity="0.15"/>
</svg>
