<svg width="102" height="31" viewBox="0 0 102 31" fill="none" xmlns="http://www.w3.org/2000/svg">
<g id="hubspot-black 1" clip-path="url(#clip0_44_1867)">
<g id="Group">
<path id="Vector" d="M0.679688 6.87451H4.19774V14.6609H11.6178V6.87543H15.1404V25.9882H11.6178V18.0379H4.19774V25.9882H0.679688V6.87451ZM26.2861 19.7617C26.2849 20.5317 25.9775 21.2698 25.4313 21.8141C24.8851 22.3584 24.1447 22.6645 23.3725 22.6652C22.6001 22.6647 21.8595 22.3588 21.3131 21.8144C20.7667 21.2701 20.4592 20.5319 20.4579 19.7617V11.5339H17.1199V19.7626C17.1199 23.1955 19.9243 25.9882 23.3707 25.9882C26.8171 25.9882 29.6205 23.1955 29.6205 19.7626V11.5339H26.2861V19.7626V19.7617ZM38.9364 11.63C37.2812 11.63 36.1257 12.1082 35.0096 13.199V6.87451H31.6624V18.5957C31.6624 22.9831 34.847 25.9873 38.4248 25.9873C42.4021 25.9873 45.8871 22.9299 45.8871 18.8091C45.8871 14.7406 42.6731 11.63 38.9364 11.63ZM39.0191 22.9034C36.7503 22.9034 35.017 21.0165 35.017 18.8091C35.017 16.6017 36.7512 14.7149 39.0191 14.7149C40.9416 14.7149 42.6768 16.6017 42.6768 18.8091C42.6768 21.0165 40.9407 22.9034 39.0191 22.9034ZM51.5086 12.47C51.5086 10.7938 52.6293 10.2626 53.8574 10.2626C54.8457 10.2626 56.1538 11.0072 57.0062 11.9112L59.1951 9.35853C58.1011 7.89669 55.8865 6.8855 54.0714 6.8855C50.4404 6.8855 47.8253 8.98666 47.8253 12.47C47.8253 18.931 55.8056 16.8829 55.8056 20.5C55.8056 21.6156 54.7126 22.6002 53.4578 22.6002C51.4829 22.6002 50.8409 21.643 49.9342 20.6318L47.5047 23.1314C49.0534 25.0192 50.975 25.9772 53.2704 25.9772C56.7132 25.9772 59.489 23.8495 59.489 20.5256C59.489 13.3465 51.5086 15.5805 51.5086 12.47ZM68.3016 11.4423C64.7248 11.4423 61.5401 14.4456 61.5401 18.8339V30.5853H64.8873V24.2315C66.0034 25.3214 67.158 25.8014 68.8132 25.8014C72.5499 25.8014 75.7639 22.6909 75.7639 18.6223C75.7639 14.5006 72.278 11.4432 68.3016 11.4432V11.4423ZM68.8968 22.7165C66.628 22.7165 64.8938 20.8269 64.8938 18.6214C64.8938 16.414 66.6289 14.5262 68.8968 14.5262C70.8184 14.5262 72.5536 16.4131 72.5536 18.6205C72.5536 20.8269 70.8175 22.7165 68.8968 22.7165ZM100.403 22.9034C98.4282 22.9034 97.8679 22.0525 97.8679 20.7491V14.9805H100.937V12.0569H97.8679V8.20078L94.4794 9.71574V21.4681C94.4794 24.4724 96.5608 25.9891 99.4148 25.9891C99.8419 25.9891 100.43 25.9617 100.751 25.8829L101.578 22.8512C101.205 22.8777 100.778 22.9043 100.403 22.9043V22.9034Z" fill="#050038"/>
<path id="Vector_2" d="M91.5768 15.1526C90.9338 14.0525 90.0318 13.1705 88.9038 12.5074C88.0746 12.0186 87.1552 11.7012 86.2005 11.574V8.07973C86.6781 7.88228 87.0855 7.54665 87.3701 7.11614C87.6546 6.68563 87.8033 6.17998 87.7969 5.66441C87.7969 4.19709 86.6166 3.0082 85.1451 3.0082C84.4374 3.00747 83.7584 3.28677 83.2571 3.78477C82.7558 4.28278 82.4731 4.95879 82.4712 5.66441C82.4712 6.74064 83.0471 7.66298 84.0327 8.07973V11.5759C83.2142 11.6935 82.4199 11.9415 81.6803 12.3104C78.5309 9.92661 75.3809 7.54365 72.2302 5.16156C72.3066 4.90948 72.348 4.64814 72.3533 4.38485C72.3533 3.99835 72.2769 3.61564 72.1286 3.25858C71.9802 2.90153 71.7627 2.57712 71.4885 2.30391C71.2144 2.0307 70.8889 1.81403 70.5307 1.66629C70.1726 1.51855 69.7887 1.44263 69.4011 1.44287C69.0137 1.44293 68.63 1.51909 68.2721 1.66699C67.9141 1.8149 67.5889 2.03165 67.315 2.30488C67.0411 2.57811 66.8238 2.90247 66.6756 3.25943C66.5274 3.61639 66.4511 3.99896 66.4512 4.38531C66.4512 4.77166 66.5276 5.15421 66.6759 5.51112C66.8243 5.86804 67.0416 6.19233 67.3156 6.46547C67.5897 6.73862 67.9149 6.95527 68.2729 7.10306C68.6309 7.25086 69.0146 7.32689 69.402 7.32683C69.9587 7.32683 70.474 7.16471 70.9176 6.89818L71.5349 7.3653L80.0168 13.4517C79.5572 13.8644 79.1536 14.3352 78.8163 14.8521C78.1393 15.9192 77.7259 17.0934 77.7259 18.3739V18.6405C77.7259 19.5399 77.8977 20.3881 78.1898 21.1858C78.447 21.8819 78.8227 22.5139 79.2884 23.0873L76.4739 25.8983C76.066 25.7472 75.6231 25.7162 75.1981 25.8091C74.773 25.902 74.3837 26.1148 74.0765 26.4222C73.8639 26.6327 73.6953 26.8832 73.5805 27.1591C73.4658 27.435 73.407 27.731 73.4078 28.0297C73.4078 28.637 73.6466 29.2076 74.0774 29.6372C74.2888 29.849 74.5402 30.0169 74.817 30.1312C75.0939 30.2455 75.3908 30.3039 75.6904 30.303C75.9904 30.3039 76.2875 30.2455 76.5646 30.1312C76.8418 30.0169 77.0935 29.849 77.3052 29.6372C77.6011 29.344 77.8102 28.9751 77.9096 28.5712C78.0089 28.1672 77.9946 27.7437 77.8683 27.3473L80.7774 24.4484C81.176 24.7232 81.6068 24.954 82.0707 25.1537C82.9837 25.5475 83.9923 25.7866 85.0955 25.7866H85.2976C86.5037 25.7925 87.6916 25.4934 88.7504 24.9174C89.8611 24.3241 90.7947 23.4485 91.4564 22.3793C92.1334 21.2985 92.5073 20.1059 92.5073 18.7925V18.7275C92.5073 17.436 92.2069 16.2444 91.5768 15.1526ZM88.022 21.2325C87.232 22.1073 86.3236 22.6458 85.2976 22.6458H85.1285C84.5425 22.6458 83.9693 22.4837 83.4081 22.1906C82.7752 21.8673 82.2948 21.4066 81.9017 20.8231C81.4938 20.2498 81.2734 19.6242 81.2734 18.961V18.7595C81.2734 18.1083 81.3992 17.49 81.7152 16.9057C82.0407 16.2821 82.5247 15.7546 83.1187 15.3761C83.693 14.9909 84.3704 14.7876 85.0624 14.7926H85.1285C85.7715 14.7926 86.3814 14.919 86.9565 15.2121C87.538 15.5171 88.032 15.9647 88.3922 16.5127C88.7531 17.0751 88.9672 17.6815 89.0361 18.3419C89.0471 18.4792 89.0526 18.6194 89.0526 18.754C89.0526 19.6498 88.7091 20.4797 88.0211 21.2325H88.022Z" fill="#050038"/>
</g>
</g>
<defs>
<clipPath id="clip0_44_1867">
<rect width="101.041" height="30.2258" fill="white" transform="translate(0.668945 0.774414)"/>
</clipPath>
</defs>
</svg>
