<svg width="74" height="33" viewBox="0 0 74 33" fill="none" xmlns="http://www.w3.org/2000/svg">
<g id="jll-black 1" clip-path="url(#clip0_44_1882)">
<g id="Group">
<path id="Vector" d="M44.5085 6.7417H36.2136V7.50253C36.6049 7.55175 36.9235 7.5768 37.1921 7.6502C37.5099 7.72361 37.7301 7.82292 37.902 7.96973C38.3908 8.38685 38.3908 9.19776 38.3908 10.6227V20.276C38.3908 22.2406 38.5626 25.0171 35.7974 24.9679C34.5987 24.9428 33.4001 24.1077 33.008 22.5602H32.0537C32.4458 25.1639 33.8405 26.9326 37.1921 26.9326C40.0307 26.9326 42.5749 25.6061 42.5749 21.1603V10.6227C42.5749 9.17358 42.5749 8.43607 43.0646 7.99391C43.3832 7.72361 43.6276 7.60098 44.5085 7.50253V6.7417ZM54.0521 6.7417H45.7564V7.50253C46.6131 7.5768 46.9067 7.72361 47.2003 7.99478C47.5915 8.33849 47.6649 8.87823 47.6649 9.83682V23.2977C47.6407 24.2304 47.5915 24.8202 47.2003 25.1397C46.8825 25.41 46.6372 25.5327 45.7564 25.6311V26.3919H58.2846L59.6059 22.536H58.6516C57.6973 24.6483 56.205 24.8936 54.8345 24.8936C53.7092 24.8936 52.9752 24.8202 52.4613 24.5007C52.0451 24.2304 51.8983 23.5179 51.8741 22.2899V10.6227C51.8741 9.17358 51.8741 8.38685 52.3629 7.96973C52.6815 7.69943 53.1954 7.60098 54.0763 7.52757L54.0512 6.7417H54.0521Z" fill="#050038"/>
<path id="Vector_2" d="M67.8531 6.74187H59.5583V7.5027C60.415 7.57697 60.7077 7.72378 61.0013 7.99495C61.3934 8.33866 61.4668 8.87841 61.4668 9.837V23.2979C61.4426 24.2305 61.3934 24.8204 61.0022 25.1399C60.6835 25.4102 60.4391 25.5328 59.5583 25.6313V26.3921H72.0864L73.4077 22.5362H72.4535C71.4983 24.6485 70.006 24.8938 68.6364 24.8938C67.5103 24.8938 66.7762 24.8204 66.2624 24.5008C65.847 24.2305 65.7002 23.5181 65.6751 22.29V10.6229C65.6751 9.17375 65.6751 8.38702 66.1648 7.9699C66.4826 7.6996 66.9964 7.60115 67.8773 7.52774V6.74187H67.8531ZM12.1858 32.363C12.5778 32.1903 12.9457 31.9701 13.3119 31.724L13.5321 31.5771C13.9805 31.2466 14.3909 30.8675 14.7558 30.4467C15.2446 29.9311 15.685 29.3413 16.1013 28.7281C16.4191 28.2609 16.6885 27.7445 16.958 27.2289C17.9606 25.215 18.6213 23.0042 18.9641 20.8176C19.1843 19.3927 19.2819 17.9686 19.2819 16.5687C19.2819 15.1688 19.1843 13.7439 18.9641 12.3198C18.6213 10.1332 17.9857 7.89822 16.958 5.90764C16.8354 5.68656 16.7127 5.4413 16.591 5.22021C16.0485 6.22541 15.5979 7.27751 15.2446 8.3637C15.9053 10.3292 16.2973 12.4174 16.4441 14.4805C16.542 15.8871 16.542 17.2987 16.4441 18.7053C16.2723 21.2356 15.7584 23.7659 14.78 26.1235C14.4154 27.0403 13.9649 27.9204 13.4345 28.7523C13.3119 28.9484 13.2143 29.1453 13.0675 29.3413C12.7981 29.732 12.5205 30.1169 12.235 30.4959C11.893 30.913 11.526 31.331 11.1097 31.724C10.6935 32.1419 10.253 32.5098 9.76423 32.8544C9.71501 32.8786 9.69083 32.9028 9.6416 32.9278V32.977C10.5226 32.9454 11.3881 32.7365 12.1866 32.363H12.1858Z" fill="#050038"/>
<path id="Vector_3" d="M17.2733 32.3628C17.6654 32.1901 18.0324 31.9699 18.3994 31.7238L18.6196 31.5769C20.1119 30.4465 21.213 28.924 22.0447 27.278C23.0482 25.2641 23.7088 23.0533 24.0517 20.8666C24.2719 19.4417 24.3695 18.0168 24.3695 16.6177C24.3695 15.217 24.2719 13.7929 24.0517 12.368C23.7088 10.1822 23.0723 7.94638 22.0447 5.95666C21.2864 4.43414 20.2587 3.00921 18.9374 1.90381C18.5136 2.3597 18.1212 2.84385 17.763 3.35292L18.13 3.86935C20.2346 7.01284 21.2622 10.747 21.5066 14.5054C21.6045 15.9119 21.6045 17.3236 21.5066 18.7301C21.2622 22.4885 20.2346 26.246 18.13 29.3661C17.8605 29.7591 17.592 30.127 17.2983 30.5199C16.9555 30.9379 16.5885 31.3559 16.1722 31.7488C15.7568 32.1659 15.3164 32.5347 14.8267 32.8784C14.7775 32.9026 14.7533 32.9276 14.7041 32.9518V33.001C15.5936 32.9547 16.4658 32.7377 17.2733 32.3619V32.3628Z" fill="#050038"/>
<path id="Vector_4" d="M23.7345 31.5511C25.2267 30.4207 26.3278 28.8981 27.1595 27.2521C28.163 25.2382 28.8236 23.0274 29.1665 20.8417C29.3867 19.4167 29.4843 17.9918 29.4843 16.5919C29.4843 15.192 29.3867 13.7671 29.1665 12.343C28.8236 10.1564 28.1872 7.92141 27.1595 5.93168C26.3278 4.28567 25.2026 2.71393 23.7345 1.63271C22.6083 0.748385 21.2136 0.207774 19.844 0.183594V0.232819C21.1894 1.1655 22.3397 2.4678 23.2206 3.84351C25.3243 6.987 26.352 10.7212 26.5973 14.4796C26.6949 15.8861 26.6949 17.2977 26.5973 18.7043C26.352 22.4626 25.3243 26.221 23.2206 29.3403C22.3147 30.691 21.1653 31.9933 19.8189 32.951V33.0002C21.2136 32.951 22.6083 32.4104 23.7345 31.5511ZM17.2739 0.79761C16.8827 0.970329 16.5157 1.19055 16.1486 1.43667L15.9276 1.58348C15.5122 1.90301 15.0959 2.27177 14.7047 2.68888C14.215 3.20531 13.7746 3.79429 13.3584 4.4083C13.0406 4.87464 12.7711 5.39107 12.5025 5.90664C11.499 7.92141 10.8384 10.1322 10.4955 12.318C10.2753 13.7429 10.1777 15.1678 10.1777 16.5669C10.1777 17.9676 10.2762 19.3917 10.4955 20.8166C10.8384 23.0032 11.4749 25.2382 12.5025 27.2279C12.6243 27.449 12.7469 27.6943 12.8696 27.9154C13.4117 26.9102 13.862 25.8581 14.215 24.7719C13.5544 22.8063 13.1632 20.7182 13.0164 18.655C12.9187 17.2485 12.9187 15.8369 13.0164 14.4303C13.1874 11.9 13.7012 9.36966 14.6805 7.01204C15.0717 6.12772 15.5122 5.21922 16.0502 4.38412C16.1728 4.18722 16.2704 3.99119 16.4172 3.79429C16.6867 3.40135 16.9552 3.03259 17.2489 2.63966C17.5917 2.22254 17.9587 1.80456 18.375 1.41163C18.7912 0.99451 19.2308 0.625755 19.7205 0.282044C19.7697 0.256999 19.7939 0.232819 19.8431 0.207774V0.183594C18.9622 0.207774 18.1055 0.428855 17.2739 0.79761Z" fill="#050038"/>
<path id="Vector_5" d="M12.1862 0.79761C11.795 0.970329 11.4279 1.19055 11.0609 1.43667L10.8407 1.58348C9.37258 2.71393 8.2715 4.23645 7.41481 5.88332C6.41218 7.8955 5.75153 10.1063 5.40868 12.2938C5.1943 13.7083 5.08806 15.1371 5.09087 16.5677C5.09087 17.9667 5.18846 19.3917 5.40868 20.8166C5.75153 23.0032 6.38713 25.2382 7.41481 27.2279C8.17391 28.7505 9.20159 30.1754 10.522 31.2808C10.9383 30.8386 11.3304 30.3481 11.6965 29.8317L11.3295 29.3153C9.22577 26.1718 8.19809 22.4384 7.95283 18.6801C7.85502 17.2733 7.85502 15.8613 7.95283 14.4545C8.19809 10.697 9.22577 6.93864 11.3295 3.81933C11.5989 3.42553 11.8684 3.05764 12.162 2.6647C12.504 2.24672 12.8719 1.82961 13.2873 1.43667C13.7035 1.04373 14.1439 0.674979 14.6086 0.355449C14.6578 0.331269 14.682 0.306224 14.7312 0.282044V0.183594C13.8745 0.207774 12.9936 0.428855 12.1862 0.79761Z" fill="#050038"/>
<path id="Vector_6" d="M5.74987 1.60853C4.25758 2.73811 3.15649 4.26149 2.32485 5.90664C1.32136 7.92141 0.660705 10.1322 0.317857 12.318C0.103483 13.7325 -0.00275865 15.1613 5.44243e-05 16.5919C5.44243e-05 17.9918 0.0976407 19.4167 0.317857 20.8408C0.660705 23.0274 1.29717 25.2624 2.32485 27.2521C3.15649 28.8981 4.28176 30.4699 5.74987 31.5511C6.876 32.3612 8.24566 32.9268 9.64037 32.976V32.9268C8.27071 31.9933 7.14458 30.691 6.23953 29.3161C4.13495 26.1718 3.10727 22.4376 2.86287 18.6801C2.76505 17.2733 2.76505 15.8613 2.86287 14.4545C3.10727 10.697 4.13495 6.93864 6.23953 3.81933C7.1204 2.4678 8.27071 1.16637 9.64037 0.232819V0.183594C8.24566 0.207774 6.85096 0.748385 5.74987 1.60853ZM15.6337 31.3041C16.05 30.8619 16.4412 30.3714 16.8082 29.855L16.4412 29.3394L16.0742 28.7496C15.6829 29.3394 15.2425 29.9534 14.7287 30.469C14.9972 30.7635 15.3401 31.0338 15.6337 31.3041ZM18.4007 31.7221C18.0459 31.969 17.6692 32.1829 17.2754 32.3612C18.074 32.7343 18.9395 32.9429 19.8204 32.9743V32.9251C19.3136 32.5655 18.8386 32.163 18.4007 31.7221ZM14.2649 32.951C14.4117 32.9268 14.5335 32.9026 14.6803 32.9026C14.5335 32.8042 14.4117 32.7057 14.2649 32.6073C13.9304 32.3482 13.6118 32.0694 13.3106 31.7722C12.9556 32.0192 12.5786 32.2331 12.1845 32.4112C12.7138 32.6565 13.2734 32.8299 13.8487 32.9268C13.9955 32.9018 14.1181 32.9268 14.2649 32.951ZM14.7295 32.976V32.9268C14.7054 32.9018 14.6803 32.9018 14.6561 32.8776C14.5093 32.9026 14.3867 32.9268 14.2399 32.9268C14.4117 32.976 14.5827 32.976 14.7295 32.976ZM13.8487 1.87624C13.4248 2.33273 13.0324 2.81745 12.6742 3.32708L13.0412 3.84178L13.4082 4.43162C13.7994 3.84178 14.2399 3.22777 14.7537 2.7122C14.4766 2.40836 14.1738 2.12896 13.8487 1.8771V1.87624ZM11.0601 1.46085C11.4152 1.2139 11.7922 0.999991 12.1862 0.821791C11.3933 0.429496 10.5254 0.211867 9.64123 0.183594V0.232819C10.1588 0.587608 10.6347 0.999547 11.0601 1.46085ZM17.2763 0.79761C16.7476 0.552493 16.1885 0.379104 15.6139 0.282044C15.467 0.256999 15.3444 0.232819 15.1976 0.232819C15.0445 0.202779 14.889 0.186306 14.733 0.183594V0.232819C14.7572 0.256999 14.7814 0.256999 14.8064 0.282044C14.9532 0.380493 15.075 0.47808 15.2218 0.57653C15.5646 0.846835 15.8824 1.11714 16.1761 1.41163C16.5431 1.19055 16.9101 0.969465 17.2771 0.798474L17.2763 0.79761Z" fill="#050038"/>
</g>
</g>
<defs>
<clipPath id="clip0_44_1882">
<rect width="73.4056" height="32.8166" fill="white" transform="translate(0 0.183594)"/>
</clipPath>
</defs>
</svg>
