<svg width="100" height="29" viewBox="0 0 100 29" fill="none" xmlns="http://www.w3.org/2000/svg">
<g id="juniper-networks-black 1" clip-path="url(#clip0_44_1875)">
<path id="Vector" d="M49.2706 22.4137H49.8803L53.0203 26.7429V22.4137H53.5592V27.6644H53.0479L49.8077 23.2065V27.6644H49.2697V22.4137H49.2706ZM54.896 22.4137H58.3694V22.9457H55.4574V24.6815H58.2986V25.2066H55.4574V27.1566H58.3979V27.6661H54.896V22.4137ZM61.1839 22.9449H59.2149V22.4137H63.7151V22.9457H61.7452V27.6661H61.1856V22.9449H61.1839ZM64.3956 22.4137H64.9707L66.3525 26.7576L67.7627 22.4137H68.2446L69.648 26.7576L71.0366 22.4137H71.5755L69.8889 27.7007H69.4062L67.989 23.3283L66.5787 27.7007H66.0891L64.3964 22.4137H64.3956ZM72.0773 25.0373C72.0773 23.1668 73.0333 22.3291 74.713 22.3291C76.3996 22.3291 77.3642 23.1651 77.3642 25.0373C77.3642 26.9148 76.3996 27.7516 74.713 27.7516C73.0333 27.7516 72.0773 26.9157 72.0773 25.0373ZM76.8046 25.0443C76.8046 23.6262 76.1457 22.8611 74.7147 22.8611C73.2897 22.8611 72.6377 23.6262 72.6377 25.0443C72.6377 26.4683 73.2897 27.2352 74.7138 27.2352C76.1439 27.2352 76.8037 26.4683 76.8037 25.0443H76.8046ZM80.626 25.527H79.0525V27.6687H78.5067V22.4172H80.7754C81.9931 22.4172 82.5475 22.906 82.5475 23.9475C82.5475 24.8543 82.1157 25.3862 81.2003 25.5063L82.4689 27.6679H81.873L80.626 25.5261V25.527ZM80.7814 25.0175C81.5267 25.0175 81.987 24.7904 81.987 23.9613C81.987 23.1461 81.5405 22.9336 80.7607 22.9336H79.0542V25.0166H80.7814V25.0175ZM85.33 24.8793L84.2816 26.0279V27.6644H83.7358V22.4137H84.2816V25.312L86.9389 22.4137H87.584L85.7005 24.476L87.8396 27.6661H87.2083L85.33 24.8793ZM88.3068 27.1333L88.5901 26.7084C89.1501 27.0662 89.803 27.2512 90.4675 27.2404C91.5513 27.2404 92.0341 26.9355 92.0341 26.2127C92.0341 25.4683 91.4106 25.3629 90.4675 25.1937C89.3327 24.9942 88.5676 24.8024 88.5676 23.7394C88.5676 22.7255 89.2196 22.3291 90.4675 22.3291C91.2888 22.3291 91.8778 22.5139 92.2966 22.798L91.9995 23.2506C91.6239 23.0018 91.0643 22.8386 90.4684 22.8386C89.5262 22.8386 89.122 23.1012 89.122 23.7247C89.122 24.3896 89.667 24.5192 90.6022 24.6884C91.7508 24.8948 92.5799 25.065 92.5799 26.1911C92.5799 27.2335 91.914 27.7369 90.4822 27.7369C89.6877 27.7369 88.9726 27.5729 88.3068 27.1342V27.1333ZM98.0706 0.708998C90.6877 0.708998 90.3742 4.01657 90.3742 8.68344V20.1399H92.1152V8.68257C92.1152 5.16601 91.9753 2.34465 98.0706 2.34465C98.7243 2.34465 99.303 2.37919 99.8237 2.43964V0.78154C99.2407 0.73118 98.6558 0.706975 98.0706 0.708998ZM11.9563 12.6862V1.08984H13.7328V12.7207C13.7328 16.0646 13.6982 18.8851 19.8263 18.8851C25.9198 18.8851 25.7816 16.0646 25.7816 12.5463V1.09071H27.5226V12.5472C27.5226 17.214 27.2092 20.5225 19.8263 20.5225C12.4089 20.5207 11.9563 17.214 11.9563 12.6862ZM46.0381 8.54354V20.1399H44.2617V8.50899C44.2617 5.16601 44.2963 2.34465 38.1673 2.34465C32.0721 2.34465 32.2137 5.16601 32.2137 8.68344V20.1399H30.4727V8.68257C30.4727 4.01657 30.7862 0.708998 38.169 0.708998C45.5847 0.708998 46.0381 4.01657 46.0381 8.54354ZM49.2697 1.12698H50.9744V20.1408H49.2697V1.12698ZM54.1646 1.12698H63.0648C67.4786 1.12698 69.4813 3.32051 69.4813 7.22137C69.4813 11.1473 67.5054 13.5343 63.0406 13.5343H55.8693V20.1408H54.1646V1.12698ZM63.0915 11.8243C66.1659 11.8243 67.6945 10.3251 67.6945 7.29737C67.6945 4.27047 66.045 2.83344 63.0138 2.83344H55.8676V11.8235H63.0915V11.8243ZM71.4667 10.5626C71.4667 4.95702 73.0687 0.638184 80.2434 0.638184C87.66 0.638184 87.9035 5.61681 87.869 10.8761H73.1723C73.2068 15.5084 74.3563 18.9568 80.3807 18.9568C83.5847 18.9568 85.0476 18.0845 86.6142 16.9368L87.5883 18.2262C85.8481 19.5146 83.7936 20.5251 80.3799 20.5251C72.8588 20.5225 71.4667 16.1691 71.4667 10.5626ZM73.2068 9.27414H86.1608C85.988 5.47864 85.7428 2.23929 80.2054 2.23929C74.8788 2.24102 73.4176 5.13061 73.2068 9.27414ZM1.26503 24.2644C8.64704 24.2644 8.96139 20.9569 8.96139 16.2891V1.08984H7.21952V16.2891C7.21952 19.8065 7.35942 22.6279 1.26503 22.6279C1.03445 22.6279 0.81596 22.6219 0.603516 22.6141V24.2549C0.81596 24.261 1.03704 24.2644 1.26417 24.2644H1.26503ZM95.9263 20.2228C95.6074 20.2226 95.3016 20.0959 95.0759 19.8706C94.8502 19.6452 94.7231 19.3396 94.7225 19.0207C94.7225 18.783 94.7929 18.5506 94.9249 18.353C95.0569 18.1553 95.2446 18.0013 95.4641 17.9102C95.6837 17.8192 95.9253 17.7953 96.1585 17.8415C96.3916 17.8878 96.6058 18.0021 96.774 18.17C96.9422 18.338 97.0568 18.552 97.1034 18.7851C97.15 19.0182 97.1264 19.2598 97.0357 19.4795C96.945 19.6992 96.7912 19.8871 96.5937 20.0194C96.3962 20.1517 96.164 20.2225 95.9263 20.2228ZM95.9263 17.974C95.3486 17.974 94.8788 18.4438 94.8788 19.0207C94.8788 19.5967 95.3486 20.0682 95.9263 20.0682C96.195 20.0548 96.4483 19.9387 96.6337 19.7438C96.8192 19.5489 96.9226 19.2901 96.9226 19.0211C96.9226 18.7521 96.8192 18.4933 96.6337 18.2984C96.4483 18.1035 96.195 17.9874 95.9263 17.974Z" fill="#050038"/>
<path id="Vector_2" d="M96.0037 19.1813H95.6177V19.7116H95.4346V18.3315H96.0486C96.3983 18.3315 96.5339 18.4758 96.5339 18.7478C96.5339 18.9697 96.4389 19.1252 96.2006 19.1692L96.5132 19.7116H96.3128L96.0037 19.1813ZM96.046 19.0086C96.2351 19.0086 96.3431 18.9551 96.3431 18.753C96.3431 18.5543 96.2386 18.5069 96.0408 18.5069H95.6177V19.0086H96.046Z" fill="#050038"/>
</g>
<defs>
<clipPath id="clip0_44_1875">
<rect width="99.3135" height="27.635" fill="white" transform="translate(0.604492 0.638184)"/>
</clipPath>
</defs>
</svg>
