<svg width="132" height="20" viewBox="0 0 132 20" fill="none" xmlns="http://www.w3.org/2000/svg">
<g id="lacoste-black 1" clip-path="url(#clip0_44_1878)">
<path id="Vector" fill-rule="evenodd" clip-rule="evenodd" d="M47.4473 0.543887C47.4473 0.580158 47.2573 0.606929 47.0025 0.606929C46.7486 0.606929 46.5586 0.634564 46.5586 0.670835C46.5586 0.705379 46.4153 0.733877 46.2408 0.733877C46.0664 0.733877 45.923 0.762376 45.923 0.797783C45.923 0.832327 45.809 0.860826 45.6691 0.860826C45.5301 0.860826 45.4152 0.889325 45.4152 0.924732C45.4152 0.959276 45.3297 0.987774 45.2252 0.987774C45.1207 0.987774 45.0352 1.01627 45.0352 1.05168C45.0352 1.08622 44.9489 1.11472 44.8444 1.11472C44.739 1.11472 44.6544 1.14322 44.6544 1.17863C44.6544 1.21317 44.568 1.24167 44.4635 1.24167C44.3582 1.24167 44.2727 1.27017 44.2727 1.30558C44.2727 1.34012 44.2157 1.36862 44.1457 1.36862C44.0767 1.36862 44.0188 1.39798 44.0188 1.43253C44.0188 1.46707 43.9618 1.49557 43.8918 1.49557C43.8228 1.49557 43.7649 1.52493 43.7649 1.55947C43.7649 1.59402 43.7079 1.62252 43.6379 1.62252C43.568 1.62252 43.511 1.65188 43.511 1.68642C43.511 1.72097 43.454 1.75033 43.384 1.75033C43.3141 1.75033 43.2571 1.77883 43.2571 1.81337C43.2571 1.84792 43.2053 1.87728 43.144 1.87728C43.0818 1.87728 42.9902 1.93427 42.9393 2.00423C42.8892 2.07331 42.8037 2.13117 42.7493 2.13117C42.6949 2.13117 42.6085 2.18817 42.5593 2.25812C42.5075 2.32721 42.4272 2.38507 42.3797 2.38507C42.3313 2.38507 42.2122 2.47057 42.1146 2.57506C42.0161 2.68042 41.9047 2.76505 41.8658 2.76505C41.7734 2.76505 40.4634 4.07599 40.4634 4.16753C40.4634 4.20639 40.377 4.31866 40.2734 4.41625C40.168 4.51383 40.0825 4.63387 40.0825 4.68137C40.0825 4.72973 40.0255 4.81091 39.9556 4.861C39.8865 4.91109 39.8286 5.00349 39.8286 5.06567C39.8286 5.12699 39.8001 5.17794 39.7647 5.17794C39.7302 5.17794 39.7017 5.23494 39.7017 5.30489C39.7017 5.37484 39.6732 5.43184 39.6378 5.43184C39.6032 5.43184 39.5747 5.4897 39.5747 5.55878C39.5747 5.62874 39.5462 5.68573 39.5108 5.68573C39.4763 5.68573 39.4478 5.74359 39.4478 5.81268C39.4478 5.88263 39.4193 5.94049 39.3839 5.94049C39.3493 5.94049 39.3208 5.99749 39.3208 6.06744C39.3208 6.13653 39.2923 6.19439 39.2569 6.19439C39.2224 6.19439 39.1939 6.27989 39.1939 6.38438C39.1939 6.48888 39.1654 6.57437 39.13 6.57437C39.0954 6.57437 39.0669 6.63223 39.0669 6.70218C39.0669 6.77127 39.0384 6.82913 39.003 6.82913C38.9685 6.82913 38.94 6.91463 38.94 7.01912C38.94 7.12448 38.9115 7.20912 38.8761 7.20912C38.8415 7.20912 38.813 7.29547 38.813 7.39997C38.813 7.50533 38.7845 7.58996 38.7491 7.58996C38.7146 7.58996 38.6861 7.73332 38.6861 7.90776C38.6861 8.08307 38.6576 8.22557 38.6222 8.22557C38.5859 8.22557 38.5591 8.41556 38.5591 8.67032C38.5591 8.92421 38.5315 9.11421 38.4952 9.11421C38.4555 9.11421 38.4322 9.51664 38.4322 10.1937C38.4322 10.8708 38.4555 11.2732 38.4952 11.2732C38.5324 11.2732 38.5591 11.4848 38.5591 11.781C38.5591 12.0772 38.585 12.2888 38.6222 12.2888C38.6567 12.2888 38.6861 12.4028 38.6861 12.5427C38.6861 12.6826 38.7146 12.7966 38.7491 12.7966C38.7837 12.7966 38.813 12.9114 38.813 13.0505C38.813 13.1904 38.8415 13.3044 38.8761 13.3044C38.9106 13.3044 38.94 13.3907 38.94 13.4944C38.94 13.5997 38.9685 13.6852 39.003 13.6852C39.0376 13.6852 39.0669 13.7422 39.0669 13.8122C39.0669 13.8821 39.0954 13.9391 39.13 13.9391C39.1645 13.9391 39.1939 14.0255 39.1939 14.13C39.1939 14.2345 39.2224 14.32 39.2569 14.32C39.2915 14.32 39.3208 14.3778 39.3208 14.4469C39.3208 14.5169 39.3493 14.5747 39.3839 14.5747C39.4184 14.5747 39.4478 14.6317 39.4478 14.7017C39.4478 14.7708 39.4763 14.8286 39.5108 14.8286C39.5454 14.8286 39.5747 14.8856 39.5747 14.9556C39.5747 15.0247 39.6032 15.0825 39.6378 15.0825C39.6723 15.0825 39.7017 15.1335 39.7017 15.1948C39.7017 15.257 39.7587 15.3494 39.8286 15.3995C39.8977 15.4504 39.9556 15.5359 39.9556 15.5894C39.9556 15.6447 40.0126 15.7302 40.0825 15.7803C40.1516 15.8313 40.2095 15.9107 40.2095 15.9582C40.2095 16.0057 40.3235 16.1542 40.4634 16.289C40.6033 16.4228 40.7173 16.5636 40.7173 16.6024C40.7173 16.6931 41.5195 17.4945 41.6102 17.4945C41.6482 17.4945 41.7898 17.6094 41.9237 17.7484C42.0576 17.8883 42.2061 18.0023 42.2536 18.0023C42.3011 18.0023 42.3814 18.0593 42.4315 18.1293C42.4816 18.1992 42.568 18.2562 42.6215 18.2562C42.6768 18.2562 42.7623 18.3141 42.8123 18.3832C42.8624 18.4531 42.9548 18.511 43.017 18.511C43.0792 18.511 43.1293 18.5395 43.1293 18.574C43.1293 18.6086 43.1811 18.6371 43.2433 18.6371C43.3055 18.6371 43.397 18.6949 43.4471 18.7649C43.5015 18.8392 43.6112 18.8918 43.7148 18.8918C43.8124 18.8918 43.8918 18.9203 43.8918 18.9549C43.8918 18.9894 43.9488 19.0188 44.0188 19.0188C44.0879 19.0188 44.1457 19.0473 44.1457 19.0818C44.1457 19.1164 44.2027 19.1457 44.2727 19.1457C44.3418 19.1457 44.3996 19.1742 44.3996 19.2088C44.3996 19.2433 44.486 19.2727 44.5896 19.2727C44.695 19.2727 44.7805 19.3012 44.7805 19.3357C44.7805 19.3703 44.8668 19.3996 44.9705 19.3996C45.0758 19.3996 45.1613 19.4281 45.1613 19.4627C45.1613 19.4972 45.2762 19.5266 45.4152 19.5266C45.5551 19.5266 45.6691 19.5551 45.6691 19.5896C45.6691 19.6242 45.784 19.6535 45.923 19.6535C46.0629 19.6535 46.1769 19.682 46.1769 19.7166C46.1769 19.7511 46.3203 19.7805 46.4947 19.7805C46.6692 19.7805 46.8125 19.809 46.8125 19.8435C46.8125 19.8841 47.4049 19.9074 48.4629 19.9074C49.5208 19.9074 50.1132 19.8841 50.1132 19.8435C50.1132 19.809 50.2833 19.7805 50.494 19.7805C50.7065 19.7805 50.8757 19.752 50.8757 19.7166C50.8757 19.682 50.9897 19.6535 51.1296 19.6535C51.2687 19.6535 51.3835 19.625 51.3835 19.5896C51.3835 19.5551 51.4975 19.5266 51.6374 19.5266C51.7765 19.5266 51.8913 19.4981 51.8913 19.4627C51.8913 19.4281 51.9777 19.3996 52.0813 19.3996C52.1867 19.3996 52.2713 19.3711 52.2713 19.3357C52.2713 19.3012 52.3577 19.2727 52.463 19.2727C52.5667 19.2727 52.653 19.2442 52.653 19.2088C52.653 19.1742 52.7394 19.1457 52.843 19.1457C52.9484 19.1457 53.0339 19.1172 53.0339 19.0818C53.0339 19.0473 53.0909 19.0188 53.1608 19.0188C53.2308 19.0188 53.2878 18.9894 53.2878 18.9549C53.2878 18.9203 53.3448 18.8918 53.4147 18.8918C53.4847 18.8918 53.5417 18.8625 53.5417 18.8279C53.5417 18.7934 53.5987 18.7649 53.6686 18.7649C53.7386 18.7649 53.7956 18.7355 53.7956 18.701C53.7956 18.6664 53.8534 18.6379 53.9225 18.6379C53.9925 18.6379 54.0494 18.6086 54.0494 18.574C54.0494 18.5395 54.1013 18.511 54.1626 18.511C54.2248 18.511 54.3172 18.4531 54.3673 18.3832C54.4173 18.3141 54.5097 18.2562 54.5719 18.2562C54.6341 18.2562 54.6842 18.2277 54.6842 18.1932C54.6842 18.1586 54.736 18.1293 54.7973 18.1293C54.8595 18.1293 54.9519 18.0723 55.002 18.0023C55.0521 17.9332 55.1333 17.8754 55.1808 17.8754C55.2291 17.8754 55.3483 17.7899 55.4467 17.6854C55.5443 17.58 55.6566 17.4954 55.6963 17.4954C55.8034 17.4954 56.3354 16.941 56.3354 16.8304C56.3354 16.7769 56.3069 16.7328 56.2715 16.7328C56.2369 16.7328 56.2084 16.6871 56.2084 16.6318C56.2084 16.5757 56.1221 16.4504 56.0184 16.352C55.9131 16.2544 55.8276 16.1396 55.8276 16.0981C55.8276 16.0558 55.7412 15.9427 55.6376 15.8442C55.5322 15.7466 55.4467 15.6266 55.4467 15.5791C55.4467 15.5307 55.3897 15.4495 55.3198 15.3995C55.2498 15.3494 55.1928 15.2639 55.1928 15.2095C55.1928 15.1551 55.1359 15.0696 55.0659 15.0195C54.9959 14.9677 54.9389 14.8899 54.9389 14.8442C54.9389 14.7984 54.8379 14.6594 54.7144 14.5359L54.4899 14.3113L54.3085 14.5065C54.2075 14.6136 54.0866 14.7017 54.0382 14.7017C53.9899 14.7017 53.9095 14.7587 53.8595 14.8286C53.8085 14.8977 53.723 14.9556 53.6695 14.9556C53.6142 14.9556 53.5287 15.0126 53.4786 15.0825C53.4277 15.1516 53.3361 15.2095 53.2739 15.2095C53.2118 15.2095 53.1617 15.238 53.1617 15.2725C53.1617 15.307 53.1038 15.3364 53.0339 15.3364C52.9648 15.3364 52.9069 15.3649 52.9069 15.3995C52.9069 15.434 52.8499 15.4634 52.78 15.4634C52.7109 15.4634 52.653 15.4919 52.653 15.5264C52.653 15.5609 52.596 15.5903 52.5261 15.5903C52.457 15.5903 52.3991 15.6188 52.3991 15.6533C52.3991 15.6879 52.3421 15.7173 52.2722 15.7173C52.2031 15.7173 52.1452 15.7458 52.1452 15.7803C52.1452 15.8148 52.0882 15.8442 52.0183 15.8442C51.9483 15.8442 51.8913 15.8727 51.8913 15.9072C51.8913 15.9418 51.8343 15.9712 51.7644 15.9712C51.6944 15.9712 51.6374 15.9997 51.6374 16.0342C51.6374 16.0687 51.5511 16.0981 51.4474 16.0981C51.3421 16.0981 51.2566 16.1266 51.2566 16.1611C51.2566 16.1957 51.1702 16.225 51.0666 16.225C50.9612 16.225 50.8757 16.2535 50.8757 16.2881C50.8757 16.3226 50.7609 16.352 50.6218 16.352C50.4819 16.352 50.3679 16.3805 50.3679 16.415C50.3679 16.4496 50.2246 16.4789 50.0501 16.4789C49.8757 16.4789 49.7323 16.5074 49.7323 16.542C49.7323 16.5826 49.3092 16.6059 48.5898 16.6059C47.8704 16.6059 47.4473 16.5826 47.4473 16.5429C47.4473 16.5083 47.3039 16.4789 47.1295 16.4789C46.955 16.4789 46.8125 16.4504 46.8125 16.415C46.8125 16.3805 46.7262 16.352 46.6225 16.352C46.5172 16.352 46.4317 16.3235 46.4317 16.289C46.4317 16.2535 46.3453 16.225 46.2408 16.225C46.1363 16.225 46.0508 16.1966 46.0508 16.1611C46.0508 16.1266 45.993 16.0981 45.923 16.0981C45.8539 16.0981 45.7961 16.0696 45.7961 16.0342C45.7961 15.9997 45.7391 15.9712 45.6691 15.9712C45.6 15.9712 45.5422 15.9427 45.5422 15.9072C45.5422 15.8727 45.4852 15.8442 45.4152 15.8442C45.3461 15.8442 45.2883 15.8157 45.2883 15.7803C45.2883 15.7458 45.2373 15.7173 45.176 15.7173C45.113 15.7173 45.0214 15.6603 44.9713 15.5903C44.9204 15.5204 44.8401 15.4634 44.7917 15.4634C44.7442 15.4634 44.6242 15.377 44.5266 15.2734C44.429 15.168 44.3167 15.0825 44.2761 15.0825C44.1837 15.0825 43.7649 14.6637 43.7649 14.5713C43.7649 14.5324 43.6509 14.3908 43.511 14.2569C43.3711 14.1231 43.2571 13.9745 43.2571 13.927C43.2571 13.8795 43.2001 13.7992 43.1301 13.7491C43.0602 13.699 43.0032 13.6127 43.0032 13.5591C43.0032 13.5039 42.9462 13.4184 42.8763 13.3683C42.8063 13.3182 42.7493 13.2258 42.7493 13.1636C42.7493 13.1014 42.7208 13.0513 42.6854 13.0513C42.6509 13.0513 42.6224 12.965 42.6224 12.8605C42.6224 12.7551 42.5939 12.6705 42.5584 12.6705C42.5239 12.6705 42.4954 12.5841 42.4954 12.4796C42.4954 12.3743 42.4669 12.2888 42.4315 12.2888C42.397 12.2888 42.3685 12.2024 42.3685 12.0988C42.3685 11.9934 42.34 11.9079 42.3046 11.9079C42.27 11.9079 42.2415 11.7654 42.2415 11.5901C42.2415 11.4157 42.213 11.2732 42.1776 11.2732C42.1379 11.2732 42.1137 10.8708 42.1137 10.1937C42.1137 9.51664 42.1379 9.11421 42.1776 9.11421C42.2122 9.11421 42.2415 8.97171 42.2415 8.79727C42.2415 8.62282 42.27 8.47946 42.3046 8.47946C42.3391 8.47946 42.3685 8.3931 42.3685 8.28947C42.3685 8.18411 42.397 8.09862 42.4315 8.09862C42.466 8.09862 42.4954 8.01226 42.4954 7.90863C42.4954 7.80327 42.5239 7.71777 42.5584 7.71777C42.593 7.71777 42.6224 7.66077 42.6224 7.59082C42.6224 7.52087 42.6509 7.46388 42.6854 7.46388C42.7199 7.46388 42.7493 7.40688 42.7493 7.33693C42.7493 7.26698 42.7778 7.20998 42.8123 7.20998C42.8469 7.20998 42.8763 7.15816 42.8763 7.09685C42.8763 7.03467 42.9333 6.94313 43.0032 6.89218C43.0723 6.84209 43.1301 6.75659 43.1301 6.70218C43.1301 6.64778 43.1871 6.56142 43.2571 6.51219C43.3262 6.46038 43.384 6.38265 43.384 6.33775C43.384 6.23066 44.4368 5.17794 44.5439 5.17794C44.5888 5.17794 44.6665 5.12094 44.7166 5.05099C44.7675 4.9819 44.853 4.92404 44.9074 4.92404C44.9618 4.92404 45.0473 4.86704 45.0974 4.79709C45.1484 4.72801 45.2408 4.67015 45.3021 4.67015C45.3643 4.67015 45.4152 4.64165 45.4152 4.6071C45.4152 4.57256 45.4731 4.5432 45.5422 4.5432C45.6121 4.5432 45.6691 4.5147 45.6691 4.48015C45.6691 4.44561 45.7261 4.41625 45.7961 4.41625C45.866 4.41625 45.923 4.38775 45.923 4.35321C45.923 4.31866 45.9809 4.2893 46.0508 4.2893C46.1199 4.2893 46.1769 4.2608 46.1769 4.22626C46.1769 4.19171 46.2633 4.16235 46.3678 4.16235C46.4723 4.16235 46.5578 4.13385 46.5578 4.09931C46.5578 4.06476 46.7011 4.0354 46.8756 4.0354C47.05 4.0354 47.1934 4.0069 47.1934 3.97236C47.1934 3.93609 47.3834 3.90845 47.6373 3.90845C47.8912 3.90845 48.082 3.88168 48.082 3.84541C48.082 3.80741 48.3152 3.78151 48.6537 3.78151C48.9922 3.78151 49.2245 3.80741 49.2245 3.84541C49.2245 3.88168 49.4145 3.90845 49.6693 3.90845C49.9232 3.90845 50.1132 3.93609 50.1132 3.97236C50.1132 4.0069 50.228 4.0354 50.3671 4.0354C50.507 4.0354 50.6218 4.0639 50.6218 4.09931C50.6218 4.13385 50.7073 4.16235 50.8118 4.16235C50.9163 4.16235 51.0018 4.19085 51.0018 4.22626C51.0018 4.2608 51.0882 4.2893 51.1927 4.2893C51.2972 4.2893 51.3827 4.3178 51.3827 4.35321C51.3827 4.38775 51.4405 4.41625 51.5105 4.41625C51.5796 4.41625 51.6374 4.44475 51.6374 4.48015C51.6374 4.5147 51.6944 4.5432 51.7644 4.5432C51.8335 4.5432 51.8913 4.57169 51.8913 4.6071C51.8913 4.64165 51.9423 4.67015 52.0036 4.67015C52.0666 4.67015 52.159 4.72714 52.2083 4.79709C52.2592 4.86704 52.3447 4.92404 52.3991 4.92404C52.4535 4.92404 52.539 4.98104 52.5891 5.05099C52.6401 5.12094 52.7195 5.17794 52.767 5.17794C52.8145 5.17794 52.963 5.2928 53.0978 5.43184C53.2316 5.57174 53.375 5.68573 53.4164 5.68573C53.457 5.68573 53.571 5.77209 53.6686 5.87659C53.7671 5.98108 53.8785 6.06658 53.9182 6.06658C53.957 6.06658 54.4165 5.63824 54.9389 5.1149C55.4606 4.59069 55.9191 4.16235 55.958 4.16235C56.0599 4.16235 56.2084 3.99568 56.2084 3.88168C56.2084 3.82641 56.1799 3.78151 56.1445 3.78151C56.11 3.78151 56.0815 3.73833 56.0815 3.68478C56.0815 3.57511 55.4226 2.89287 55.3155 2.89287C55.2775 2.89287 55.1359 2.77801 55.002 2.63897C54.8681 2.49907 54.7248 2.38507 54.6833 2.38507C54.6419 2.38507 54.5279 2.29871 54.4312 2.19508C54.3327 2.08972 54.2066 2.00423 54.1514 2.00423C54.0952 2.00423 54.0494 1.97486 54.0494 1.94032C54.0494 1.90578 53.9985 1.87728 53.9372 1.87728C53.875 1.87728 53.7826 1.81942 53.7325 1.75033C53.6824 1.68038 53.59 1.62252 53.5278 1.62252C53.4657 1.62252 53.4156 1.59402 53.4156 1.55947C53.4156 1.52493 53.3577 1.49557 53.2878 1.49557C53.2187 1.49557 53.1608 1.46707 53.1608 1.43253C53.1608 1.39798 53.1038 1.36862 53.0339 1.36862C52.9648 1.36862 52.9069 1.34012 52.9069 1.30558C52.9069 1.27103 52.8206 1.24167 52.7169 1.24167C52.6116 1.24167 52.5261 1.21317 52.5261 1.17863C52.5261 1.14409 52.4397 1.11472 52.3361 1.11472C52.2307 1.11472 52.1452 1.08622 52.1452 1.05168C52.1452 1.01714 52.0589 0.987774 51.9552 0.987774C51.8499 0.987774 51.7644 0.959276 51.7644 0.924732C51.7644 0.890188 51.6495 0.860826 51.5105 0.860826C51.3706 0.860826 51.2566 0.832327 51.2566 0.797783C51.2566 0.76324 51.1417 0.733877 51.0027 0.733877C50.8628 0.733877 50.7488 0.705379 50.7488 0.670835C50.7488 0.6337 50.5372 0.606929 50.241 0.606929C49.9439 0.606929 49.7323 0.581021 49.7323 0.543887C49.7323 0.503298 49.3092 0.47998 48.5898 0.47998C47.8704 0.47998 47.4473 0.503298 47.4473 0.543887ZM67.5086 0.543887C67.5086 0.581021 67.297 0.606929 67.0008 0.606929C66.7046 0.606929 66.493 0.632837 66.493 0.670835C66.493 0.705379 66.3505 0.733877 66.176 0.733877C66.0016 0.733877 65.8582 0.762376 65.8582 0.797783C65.8582 0.832327 65.7719 0.860826 65.6683 0.860826C65.5629 0.860826 65.4783 0.889325 65.4783 0.924732C65.4783 0.959276 65.3634 0.987774 65.2235 0.987774C65.0836 0.987774 64.9696 1.01627 64.9696 1.05168C64.9696 1.08622 64.8832 1.11472 64.7796 1.11472C64.6743 1.11472 64.5888 1.14322 64.5888 1.17863C64.5888 1.21317 64.5318 1.24167 64.4618 1.24167C64.3919 1.24167 64.3349 1.27017 64.3349 1.30558C64.3349 1.34012 64.2485 1.36862 64.1449 1.36862C64.0395 1.36862 63.954 1.39798 63.954 1.43253C63.954 1.46707 63.897 1.49557 63.8271 1.49557C63.7571 1.49557 63.7001 1.52493 63.7001 1.55947C63.7001 1.59402 63.6423 1.62252 63.5732 1.62252C63.5032 1.62252 63.4462 1.65188 63.4462 1.68642C63.4462 1.72097 63.3944 1.75033 63.3331 1.75033C63.2709 1.75033 63.1785 1.80733 63.1284 1.87728C63.0783 1.94637 62.9859 2.00423 62.9237 2.00423C62.8616 2.00423 62.8115 2.03272 62.8115 2.06727C62.8115 2.10181 62.7657 2.13117 62.7096 2.13117C62.6534 2.13117 62.5282 2.21667 62.4298 2.32117C62.3322 2.42566 62.2182 2.51116 62.1759 2.51116C62.1344 2.51116 62.0204 2.59752 61.922 2.70201C61.8244 2.80737 61.7121 2.892 61.6733 2.892C61.5809 2.892 60.6525 3.82123 60.6525 3.91364C60.6525 3.9525 60.5661 4.06476 60.4625 4.16235C60.3571 4.25994 60.2716 4.3748 60.2716 4.41625C60.2716 4.45856 60.1853 4.57169 60.0817 4.67015C59.9763 4.76859 59.8908 4.88777 59.8908 4.93613C59.8908 4.98363 59.8338 5.06481 59.7639 5.1149C59.6939 5.16498 59.6369 5.25739 59.6369 5.31957C59.6369 5.38175 59.6084 5.43184 59.573 5.43184C59.5385 5.43184 59.51 5.4897 59.51 5.55878C59.51 5.62874 59.4815 5.68573 59.4461 5.68573C59.4115 5.68573 59.383 5.77209 59.383 5.87659C59.383 5.98108 59.3545 6.06658 59.3191 6.06658C59.2846 6.06658 59.2561 6.12444 59.2561 6.19439C59.2561 6.26348 59.2267 6.32134 59.1922 6.32134C59.1576 6.32134 59.1291 6.40683 59.1291 6.51133C59.1291 6.61582 59.0997 6.70132 59.0652 6.70132C59.0307 6.70132 59.0022 6.75918 59.0022 6.82913C59.0022 6.89822 58.9737 6.95608 58.9383 6.95608C58.9037 6.95608 58.8752 7.07008 58.8752 7.20998C58.8752 7.34988 58.8459 7.46388 58.8113 7.46388C58.7768 7.46388 58.7474 7.55023 58.7474 7.65387C58.7474 7.75922 58.7189 7.84472 58.6844 7.84472C58.6498 7.84472 58.6213 7.98721 58.6213 8.16252C58.6213 8.33697 58.592 8.47946 58.5574 8.47946C58.5168 8.47946 58.4935 9.09262 58.4935 10.1937C58.4935 11.2939 58.5168 11.9079 58.5574 11.9079C58.592 11.9079 58.6213 12.0504 58.6213 12.2249C58.6213 12.4002 58.6489 12.5427 58.6844 12.5427C58.7189 12.5427 58.7474 12.629 58.7474 12.7327C58.7474 12.838 58.7768 12.9235 58.8113 12.9235C58.8459 12.9235 58.8743 13.0384 58.8743 13.1774C58.8743 13.3173 58.9037 13.4313 58.9383 13.4313C58.9728 13.4313 59.0022 13.5177 59.0022 13.6213C59.0022 13.7267 59.0307 13.8122 59.0652 13.8122C59.0997 13.8122 59.1291 13.8985 59.1291 14.0022C59.1291 14.1075 59.1576 14.193 59.1922 14.193C59.2267 14.193 59.2561 14.2509 59.2561 14.3208C59.2561 14.3899 59.2846 14.4469 59.3191 14.4469C59.3536 14.4469 59.383 14.5048 59.383 14.5747C59.383 14.6438 59.4115 14.7017 59.4461 14.7017C59.4806 14.7017 59.51 14.7587 59.51 14.8286C59.51 14.8977 59.5385 14.9556 59.573 14.9556C59.6075 14.9556 59.6369 15.0065 59.6369 15.0678C59.6369 15.13 59.6939 15.2224 59.7639 15.2725C59.8329 15.3235 59.8908 15.415 59.8908 15.4772C59.8908 15.5394 59.9193 15.5894 59.9538 15.5894C59.9884 15.5894 60.0178 15.6361 60.0178 15.6913C60.0178 15.7475 60.1032 15.8727 60.2077 15.9712C60.3131 16.0687 60.3977 16.181 60.3977 16.219C60.3977 16.3114 61.8356 17.7484 61.928 17.7484C61.9669 17.7484 62.0783 17.8348 62.1759 17.9384C62.2743 18.0438 62.3935 18.1293 62.4419 18.1293C62.4894 18.1293 62.5705 18.1871 62.6206 18.2562C62.6707 18.3262 62.7631 18.3832 62.8253 18.3832C62.8875 18.3832 62.9376 18.4125 62.9376 18.4471C62.9376 18.4816 62.9894 18.5101 63.0507 18.5101C63.1129 18.5101 63.2053 18.568 63.2554 18.6371C63.3055 18.707 63.3979 18.7649 63.46 18.7649C63.5222 18.7649 63.5723 18.7934 63.5723 18.8279C63.5723 18.8625 63.6302 18.8918 63.7001 18.8918C63.7692 18.8918 63.8271 18.9203 63.8271 18.9549C63.8271 18.9894 63.9126 19.0188 64.0171 19.0188C64.1216 19.0188 64.2071 19.0473 64.2071 19.0818C64.2071 19.1164 64.2649 19.1457 64.3349 19.1457C64.404 19.1457 64.4618 19.1742 64.4618 19.2088C64.4618 19.2433 64.5482 19.2727 64.6518 19.2727C64.7572 19.2727 64.8418 19.3012 64.8418 19.3357C64.8418 19.3703 64.9282 19.3996 65.0335 19.3996C65.1371 19.3996 65.2235 19.4281 65.2235 19.4627C65.2235 19.4972 65.3375 19.5266 65.4774 19.5266C65.6173 19.5266 65.7313 19.5551 65.7313 19.5896C65.7313 19.6242 65.8462 19.6535 65.9852 19.6535C66.1251 19.6535 66.2391 19.682 66.2391 19.7166C66.2391 19.7511 66.3824 19.7805 66.5569 19.7805C66.7313 19.7805 66.8738 19.809 66.8738 19.8435C66.8738 19.885 67.4878 19.9074 68.5881 19.9074C69.6892 19.9074 70.3023 19.885 70.3023 19.8435C70.3023 19.809 70.4457 19.7805 70.6201 19.7805C70.7946 19.7805 70.937 19.752 70.937 19.7166C70.937 19.682 71.0519 19.6535 71.1909 19.6535C71.3308 19.6535 71.4448 19.625 71.4448 19.5896C71.4448 19.5551 71.5597 19.5266 71.6996 19.5266C71.8386 19.5266 71.9535 19.4981 71.9535 19.4627C71.9535 19.4281 72.039 19.3996 72.1435 19.3996C72.2489 19.3996 72.3335 19.3711 72.3335 19.3357C72.3335 19.3012 72.4198 19.2727 72.5243 19.2727C72.6297 19.2727 72.7143 19.2442 72.7143 19.2088C72.7143 19.1742 72.8007 19.1457 72.9052 19.1457C73.0105 19.1457 73.0952 19.1172 73.0952 19.0818C73.0952 19.0473 73.153 19.0188 73.223 19.0188C73.2921 19.0188 73.3499 18.9894 73.3499 18.9549C73.3499 18.9203 73.4069 18.8918 73.4769 18.8918C73.546 18.8918 73.6038 18.8625 73.6038 18.8279C73.6038 18.7934 73.6548 18.7649 73.7161 18.7649C73.7791 18.7649 73.8715 18.707 73.9216 18.6371C73.9717 18.568 74.0633 18.511 74.1254 18.511C74.1876 18.511 74.2386 18.4816 74.2386 18.4471C74.2386 18.4125 74.2904 18.3832 74.3517 18.3832C74.4139 18.3832 74.5054 18.3262 74.5564 18.2562C74.6065 18.1871 74.6868 18.1293 74.7351 18.1293C74.7835 18.1293 74.9027 18.0438 75.0003 17.9393C75.0987 17.8348 75.2101 17.7493 75.249 17.7493C75.3405 17.7493 76.6515 16.4392 76.6515 16.3477C76.6515 16.3097 76.7655 16.1689 76.9054 16.0342C77.0453 15.9003 77.1593 15.7458 77.1593 15.6905C77.1593 15.6352 77.1878 15.5903 77.2223 15.5903C77.2568 15.5903 77.2862 15.5385 77.2862 15.4772C77.2862 15.415 77.3432 15.3235 77.4131 15.2725C77.4822 15.2224 77.5401 15.13 77.5401 15.0678C77.5401 15.0065 77.5686 14.9556 77.6031 14.9556C77.6377 14.9556 77.667 14.8986 77.667 14.8286C77.667 14.7587 77.6955 14.7017 77.7309 14.7017C77.7655 14.7017 77.794 14.6438 77.794 14.5747C77.794 14.5048 77.8225 14.4469 77.857 14.4469C77.8924 14.4469 77.9209 14.3614 77.9209 14.2569C77.9209 14.1524 77.9494 14.0669 77.9848 14.0669C78.0194 14.0669 78.0479 14.0091 78.0479 13.9391C78.0479 13.87 78.0764 13.8122 78.1118 13.8122C78.1463 13.8122 78.1748 13.7267 78.1748 13.6222C78.1748 13.5177 78.2033 13.4322 78.2387 13.4322C78.2733 13.4322 78.3018 13.3458 78.3018 13.2413C78.3018 13.136 78.3303 13.0513 78.3657 13.0513C78.4002 13.0513 78.4287 12.9365 78.4287 12.7966C78.4287 12.6567 78.4572 12.5427 78.4926 12.5427C78.5272 12.5427 78.5557 12.4002 78.5557 12.2257C78.5557 12.0504 78.5842 11.9079 78.6196 11.9079C78.6602 11.9079 78.6826 11.3155 78.6826 10.2567C78.6826 9.19884 78.6602 8.60728 78.6196 8.60728C78.5842 8.60728 78.5557 8.43715 78.5557 8.22557C78.5557 8.01399 78.5281 7.84472 78.4926 7.84472C78.4581 7.84472 78.4287 7.73073 78.4287 7.59082C78.4287 7.45092 78.4002 7.33693 78.3657 7.33693C78.3311 7.33693 78.3018 7.25057 78.3018 7.14694C78.3018 7.04158 78.2733 6.95608 78.2387 6.95608C78.2042 6.95608 78.1748 6.89908 78.1748 6.82913C78.1748 6.75918 78.1463 6.70218 78.1118 6.70218C78.0773 6.70218 78.0479 6.61582 78.0479 6.51219C78.0479 6.40683 78.0194 6.32134 77.9848 6.32134C77.9503 6.32134 77.9209 6.26348 77.9209 6.19439C77.9209 6.12444 77.8924 6.06744 77.857 6.06744C77.8225 6.06744 77.794 6.00958 77.794 5.94049C77.794 5.87054 77.7655 5.81268 77.7309 5.81268C77.6964 5.81268 77.667 5.75568 77.667 5.68573C77.667 5.61665 77.6385 5.55878 77.604 5.55878C77.5686 5.55878 77.5401 5.50179 77.5401 5.43184C77.5401 5.36275 77.5116 5.30489 77.4762 5.30489C77.4416 5.30489 77.4131 5.24789 77.4131 5.17794C77.4131 5.10885 77.3847 5.05099 77.3492 5.05099C77.3147 5.05099 77.2862 5.00522 77.2862 4.94995C77.2862 4.89382 77.1998 4.76859 77.0962 4.67015C76.9909 4.57256 76.9054 4.45943 76.9054 4.41884C76.9054 4.37825 76.762 4.20553 76.5876 4.0354C76.4131 3.86527 76.2706 3.69515 76.2706 3.65715C76.2706 3.56647 75.5953 2.89287 75.5037 2.89287C75.464 2.89287 75.3526 2.80651 75.2542 2.70287C75.1566 2.59752 75.0374 2.51202 74.989 2.51202C74.9407 2.51202 74.8604 2.45502 74.8103 2.38507C74.7602 2.31512 74.6738 2.25812 74.6203 2.25812C74.565 2.25812 74.4795 2.20026 74.4294 2.13117C74.3785 2.06122 74.293 2.00423 74.2394 2.00423C74.1842 2.00423 74.0987 1.94637 74.0486 1.87728C73.9976 1.80733 73.9061 1.75033 73.8439 1.75033C73.7817 1.75033 73.7308 1.72097 73.7308 1.68642C73.7308 1.65188 73.6738 1.62252 73.6038 1.62252C73.5347 1.62252 73.4769 1.59402 73.4769 1.55947C73.4769 1.52493 73.4199 1.49557 73.3499 1.49557C73.2808 1.49557 73.223 1.46707 73.223 1.43253C73.223 1.39798 73.1366 1.36862 73.033 1.36862C72.9276 1.36862 72.8421 1.34012 72.8421 1.30558C72.8421 1.27103 72.7851 1.24167 72.7152 1.24167C72.6452 1.24167 72.5882 1.21317 72.5882 1.17863C72.5882 1.14409 72.5019 1.11472 72.3983 1.11472C72.2929 1.11472 72.2074 1.08622 72.2074 1.05168C72.2074 1.01714 72.0925 0.987774 71.9535 0.987774C71.8136 0.987774 71.6996 0.959276 71.6996 0.924732C71.6996 0.890188 71.6132 0.860826 71.5088 0.860826C71.4043 0.860826 71.3188 0.832327 71.3188 0.797783C71.3188 0.76324 71.1754 0.733877 71.001 0.733877C70.8265 0.733877 70.6832 0.705379 70.6832 0.670835C70.6832 0.6337 70.4716 0.606929 70.1754 0.606929C69.8792 0.606929 69.6676 0.581021 69.6676 0.543887C69.6676 0.504161 69.2651 0.47998 68.5881 0.47998C67.911 0.47998 67.5086 0.504161 67.5086 0.543887ZM87.4438 0.543887C87.4438 0.580158 87.2538 0.606929 86.9999 0.606929C86.746 0.606929 86.5552 0.634564 86.5552 0.670835C86.5552 0.705379 86.4127 0.733877 86.2382 0.733877C86.0629 0.733877 85.9204 0.762376 85.9204 0.797783C85.9204 0.832327 85.8341 0.860826 85.7304 0.860826C85.6251 0.860826 85.5396 0.889325 85.5396 0.924732C85.5396 0.959276 85.4532 0.987774 85.3496 0.987774C85.2442 0.987774 85.1587 1.01627 85.1587 1.05168C85.1587 1.08622 85.1017 1.11472 85.0318 1.11472C84.9618 1.11472 84.9048 1.14322 84.9048 1.17863C84.9048 1.21317 84.8185 1.24167 84.7149 1.24167C84.6095 1.24167 84.524 1.27017 84.524 1.30558C84.524 1.34012 84.4722 1.36862 84.4109 1.36862C84.3487 1.36862 84.2563 1.42648 84.2062 1.49557C84.1561 1.56552 84.0706 1.62252 84.0162 1.62252C83.9618 1.62252 83.8754 1.68038 83.8253 1.75033C83.7753 1.81942 83.6967 1.87728 83.6518 1.87728C83.606 1.87728 83.3556 2.09059 83.0939 2.35226C82.8331 2.61306 82.6189 2.86437 82.6189 2.90927C82.6189 2.95504 82.5619 3.03277 82.492 3.08286C82.4229 3.13381 82.365 3.2193 82.365 3.27285C82.365 3.32812 82.308 3.41361 82.2381 3.4637C82.169 3.51465 82.1111 3.6062 82.1111 3.66837C82.1111 3.73055 82.0826 3.78151 82.0481 3.78151C82.0135 3.78151 81.9842 3.86786 81.9842 3.9715C81.9842 4.07685 81.9557 4.16235 81.9203 4.16235C81.8857 4.16235 81.8572 4.24871 81.8572 4.35234C81.8572 4.4577 81.8287 4.5432 81.7942 4.5432C81.7588 4.5432 81.7303 4.65805 81.7303 4.79709C81.7303 4.937 81.7018 5.05099 81.6664 5.05099C81.6275 5.05099 81.6033 5.43184 81.6033 6.06744C81.6033 6.70218 81.6275 7.08303 81.6664 7.08303C81.7009 7.08303 81.7303 7.19702 81.7303 7.33693C81.7303 7.47683 81.7588 7.59082 81.7933 7.59082C81.8279 7.59082 81.8572 7.67718 81.8572 7.78081C81.8572 7.88617 81.8857 7.97167 81.9203 7.97167C81.9548 7.97167 81.9842 8.02262 81.9842 8.08394C81.9842 8.14698 82.0412 8.23938 82.1111 8.28947C82.1802 8.33956 82.2381 8.41988 82.2381 8.46824C82.2381 8.5166 82.3244 8.63577 82.428 8.73336C82.5334 8.83181 82.6189 8.94321 82.6189 8.98294C82.6189 9.08225 83.169 9.622 83.2701 9.622C83.3158 9.622 83.3944 9.67986 83.4445 9.74895C83.4946 9.8189 83.5801 9.8759 83.6345 9.8759C83.6889 9.8759 83.7753 9.93376 83.8253 10.0028C83.8754 10.0728 83.9678 10.1298 84.03 10.1298C84.0922 10.1298 84.1423 10.1592 84.1423 10.1937C84.1423 10.2282 84.2001 10.2576 84.2701 10.2576C84.3392 10.2576 84.397 10.2861 84.397 10.3206C84.397 10.3552 84.454 10.3846 84.524 10.3846C84.5931 10.3846 84.6509 10.4131 84.6509 10.4476C84.6509 10.4821 84.7079 10.5115 84.7779 10.5115C84.847 10.5115 84.9048 10.54 84.9048 10.5745C84.9048 10.6091 84.9618 10.6385 85.0318 10.6385C85.1009 10.6385 85.1587 10.6669 85.1587 10.7015C85.1587 10.736 85.2442 10.7654 85.3487 10.7654C85.4541 10.7654 85.5387 10.7939 85.5387 10.8284C85.5387 10.863 85.6251 10.8923 85.7296 10.8923C85.8349 10.8923 85.9196 10.9208 85.9196 10.9554C85.9196 10.9899 86.0059 11.0193 86.1104 11.0193C86.2158 11.0193 86.3013 11.0478 86.3013 11.0823C86.3013 11.1169 86.3876 11.1462 86.4913 11.1462C86.5966 11.1462 86.6821 11.1747 86.6821 11.2093C86.6821 11.2438 86.7685 11.2732 86.8721 11.2732C86.9775 11.2732 87.063 11.3017 87.063 11.3362C87.063 11.3708 87.1485 11.4001 87.2538 11.4001C87.3583 11.4001 87.4438 11.4286 87.4438 11.4632C87.4438 11.4977 87.5302 11.5271 87.6347 11.5271C87.7392 11.5271 87.8247 11.5556 87.8247 11.5901C87.8247 11.6247 87.911 11.654 88.0155 11.654C88.12 11.654 88.2055 11.6825 88.2055 11.7171C88.2055 11.7516 88.2919 11.781 88.3964 11.781C88.5008 11.781 88.5872 11.8095 88.5872 11.844C88.5872 11.8786 88.6727 11.9079 88.7772 11.9079C88.8817 11.9079 88.968 11.9364 88.968 11.971C88.968 12.0055 89.0536 12.0349 89.158 12.0349C89.2634 12.0349 89.3489 12.0634 89.3489 12.0979C89.3489 12.1325 89.4344 12.1618 89.5389 12.1618C89.6442 12.1618 89.7297 12.1903 89.7297 12.2249C89.7297 12.2594 89.7867 12.2888 89.8567 12.2888C89.9266 12.2888 89.9836 12.3173 89.9836 12.3527C89.9836 12.3872 90.0691 12.4157 90.1736 12.4157C90.279 12.4157 90.3645 12.4442 90.3645 12.4796C90.3645 12.5142 90.4154 12.5427 90.4776 12.5427C90.5398 12.5427 90.6313 12.5997 90.6823 12.6696C90.7324 12.7396 90.811 12.7966 90.8559 12.7966C90.9716 12.7966 91.634 13.471 91.634 13.5894C91.634 13.642 91.6625 13.6852 91.6979 13.6852C91.7324 13.6852 91.7609 13.7716 91.7609 13.8752C91.7609 13.9806 91.7894 14.0661 91.8248 14.0661C91.8611 14.0661 91.8879 14.2569 91.8879 14.5108C91.8879 14.7647 91.8611 14.9556 91.8248 14.9556C91.7894 14.9556 91.7609 15.0411 91.7609 15.1456C91.7609 15.2501 91.7324 15.3355 91.6979 15.3355C91.6625 15.3355 91.634 15.3874 91.634 15.4487C91.634 15.5117 91.577 15.6033 91.507 15.6533C91.4371 15.7043 91.3801 15.7838 91.3801 15.8313C91.3801 15.9418 91.2238 16.0981 91.1132 16.0981C91.0657 16.0981 90.9863 16.1551 90.9362 16.225C90.8852 16.2941 90.7937 16.352 90.7315 16.352C90.6693 16.352 90.6184 16.3805 90.6184 16.415C90.6184 16.4496 90.5329 16.4789 90.4284 16.4789C90.323 16.4789 90.2375 16.5074 90.2375 16.542C90.2375 16.5774 90.1235 16.6059 89.9836 16.6059C89.8437 16.6059 89.7297 16.6344 89.7297 16.6698C89.7297 16.7052 89.5389 16.7328 89.285 16.7328C89.0311 16.7328 88.8411 16.7605 88.8411 16.7967C88.8411 16.833 88.6503 16.8598 88.3964 16.8598C88.1425 16.8598 87.9516 16.833 87.9516 16.7967C87.9516 16.7588 87.7193 16.7328 87.3808 16.7328C87.0422 16.7328 86.8091 16.7069 86.8091 16.6698C86.8091 16.6353 86.6666 16.6059 86.4921 16.6059C86.3168 16.6059 86.1743 16.5774 86.1743 16.5429C86.1743 16.5083 86.0603 16.4789 85.9204 16.4789C85.7805 16.4789 85.6665 16.4504 85.6665 16.415C85.6665 16.3805 85.5525 16.352 85.4126 16.352C85.2727 16.352 85.1587 16.3235 85.1587 16.289C85.1587 16.2535 85.0724 16.225 84.9687 16.225C84.8634 16.225 84.7779 16.1966 84.7779 16.1611C84.7779 16.1266 84.72 16.0981 84.6509 16.0981C84.581 16.0981 84.524 16.0696 84.524 16.0342C84.524 15.9997 84.4661 15.9712 84.397 15.9712C84.3271 15.9712 84.2701 15.9427 84.2701 15.9072C84.2701 15.8727 84.2122 15.8442 84.1431 15.8442C84.0732 15.8442 84.0153 15.8157 84.0153 15.7803C84.0153 15.7458 83.9583 15.7173 83.8884 15.7173C83.8193 15.7173 83.7614 15.6888 83.7614 15.6533C83.7614 15.6188 83.7044 15.5903 83.6345 15.5903C83.5654 15.5903 83.5075 15.5618 83.5075 15.5264C83.5075 15.4919 83.4505 15.4634 83.3806 15.4634C83.3115 15.4634 83.2536 15.4349 83.2536 15.3995C83.2536 15.3649 83.2027 15.3364 83.1414 15.3364C83.0792 15.3364 82.9868 15.2794 82.9367 15.2095C82.8857 15.1395 82.7942 15.0825 82.732 15.0825C82.6699 15.0825 82.6198 15.054 82.6198 15.0186C82.6198 14.9841 82.5619 14.9556 82.492 14.9556C82.4073 14.9556 82.365 14.9979 82.365 15.0825C82.365 15.1516 82.3365 15.2095 82.302 15.2095C82.2674 15.2095 82.2381 15.2665 82.2381 15.3364C82.2381 15.4055 82.2096 15.4634 82.175 15.4634C82.1405 15.4634 82.1111 15.5489 82.1111 15.6533C82.1111 15.7587 82.0826 15.8433 82.0481 15.8433C82.0135 15.8433 81.9842 15.9012 81.9842 15.9712C81.9842 16.0402 81.9557 16.0981 81.9203 16.0981C81.8857 16.0981 81.8572 16.1845 81.8572 16.2881C81.8572 16.3935 81.8287 16.4789 81.7942 16.4789C81.7588 16.4789 81.7303 16.5359 81.7303 16.6059C81.7303 16.675 81.7018 16.7328 81.6664 16.7328C81.6318 16.7328 81.6033 16.8192 81.6033 16.9228C81.6033 17.0282 81.5748 17.1137 81.5394 17.1137C81.5049 17.1137 81.4764 17.2 81.4764 17.3037C81.4764 17.409 81.4479 17.4945 81.4125 17.4945C81.3779 17.4945 81.3494 17.5809 81.3494 17.6845C81.3494 17.8175 81.3805 17.8754 81.4505 17.8754C81.5066 17.8754 81.6318 17.9617 81.7303 18.0654C81.8279 18.1707 81.9539 18.2562 82.0092 18.2562C82.0653 18.2562 82.1111 18.2856 82.1111 18.3201C82.1111 18.3547 82.1621 18.3832 82.2234 18.3832C82.2864 18.3832 82.3788 18.441 82.4289 18.511C82.479 18.5801 82.5705 18.6371 82.6327 18.6371C82.6949 18.6371 82.7458 18.6664 82.7458 18.701C82.7458 18.7355 82.8028 18.7649 82.8728 18.7649C82.9427 18.7649 82.9997 18.7934 82.9997 18.8279C82.9997 18.8625 83.0567 18.8918 83.1267 18.8918C83.1966 18.8918 83.2536 18.9203 83.2536 18.9549C83.2536 18.9894 83.3115 19.0188 83.3806 19.0188C83.4505 19.0188 83.5075 19.0473 83.5075 19.0818C83.5075 19.1164 83.5939 19.1457 83.6975 19.1457C83.8029 19.1457 83.8893 19.1742 83.8893 19.2088C83.8893 19.2433 83.9747 19.2727 84.0792 19.2727C84.1837 19.2727 84.2692 19.3012 84.2692 19.3357C84.2692 19.3703 84.3556 19.3996 84.4601 19.3996C84.5646 19.3996 84.6501 19.4281 84.6501 19.4627C84.6501 19.4972 84.7649 19.5266 84.9048 19.5266C85.0439 19.5266 85.1587 19.5551 85.1587 19.5896C85.1587 19.6242 85.3012 19.6535 85.4757 19.6535C85.651 19.6535 85.7935 19.682 85.7935 19.7166C85.7935 19.752 85.9627 19.7805 86.1743 19.7805C86.3859 19.7805 86.5552 19.8081 86.5552 19.8435C86.5552 19.8841 87.1476 19.9074 88.2055 19.9074C89.2643 19.9074 89.8567 19.8841 89.8567 19.8435C89.8567 19.809 90.026 19.7805 90.2375 19.7805C90.4491 19.7805 90.6184 19.752 90.6184 19.7166C90.6184 19.682 90.7324 19.6535 90.8723 19.6535C91.0122 19.6535 91.1262 19.625 91.1262 19.5896C91.1262 19.5551 91.2117 19.5266 91.317 19.5266C91.4215 19.5266 91.507 19.4981 91.507 19.4627C91.507 19.4281 91.5934 19.3996 91.6979 19.3996C91.8024 19.3996 91.8879 19.3711 91.8879 19.3357C91.8879 19.3012 91.9457 19.2727 92.0148 19.2727C92.0848 19.2727 92.1418 19.2442 92.1418 19.2088C92.1418 19.1742 92.2281 19.1457 92.3326 19.1457C92.4371 19.1457 92.5235 19.1172 92.5235 19.0818C92.5235 19.0473 92.5736 19.0188 92.6357 19.0188C92.6979 19.0188 92.7903 18.9609 92.8404 18.8918C92.8905 18.8219 92.9769 18.7649 93.0313 18.7649C93.0857 18.7649 93.1712 18.707 93.2213 18.6371C93.2713 18.568 93.3525 18.511 93.4 18.511C93.4484 18.511 93.5684 18.4246 93.666 18.3201C93.7636 18.2156 93.8759 18.1301 93.9156 18.1301C94.0089 18.1301 94.4277 17.7113 94.4277 17.618C94.4277 17.5783 94.5132 17.4652 94.6186 17.3676C94.723 17.27 94.8085 17.1508 94.8085 17.1025C94.8085 17.0541 94.8655 16.9729 94.9355 16.9237C95.0054 16.8727 95.0624 16.7812 95.0624 16.719C95.0624 16.6568 95.0909 16.6068 95.1264 16.6068C95.1609 16.6068 95.1894 16.5489 95.1894 16.4789C95.1894 16.4099 95.2179 16.352 95.2533 16.352C95.2878 16.352 95.3163 16.295 95.3163 16.225C95.3163 16.156 95.3448 16.0981 95.3802 16.0981C95.4148 16.0981 95.4433 16.0117 95.4433 15.9081C95.4433 15.8028 95.4718 15.7173 95.5072 15.7173C95.5426 15.7173 95.5702 15.548 95.5702 15.3364C95.5702 15.1248 95.5987 14.9556 95.6341 14.9556C95.6721 14.9556 95.6972 14.7017 95.6972 14.3208C95.6972 13.9391 95.6721 13.6852 95.6341 13.6852C95.5987 13.6852 95.5702 13.516 95.5702 13.3052C95.5702 13.0928 95.5426 12.9235 95.5072 12.9235C95.4718 12.9235 95.4433 12.8095 95.4433 12.6696C95.4433 12.5297 95.4148 12.4157 95.3802 12.4157C95.3448 12.4157 95.3163 12.3587 95.3163 12.2888C95.3163 12.2197 95.2878 12.1618 95.2533 12.1618C95.2179 12.1618 95.1894 12.1048 95.1894 12.0349C95.1894 11.9658 95.1609 11.9079 95.1264 11.9079C95.0909 11.9079 95.0624 11.8509 95.0624 11.781C95.0624 11.711 95.0339 11.654 94.9994 11.654C94.964 11.654 94.9355 11.6091 94.9355 11.5547C94.9355 11.5003 94.793 11.3164 94.6186 11.1462C94.4432 10.9761 94.3008 10.8043 94.3008 10.7645C94.3008 10.6704 94.1401 10.5115 94.0451 10.5115C94.0045 10.5115 93.8905 10.4251 93.793 10.3215C93.6954 10.2162 93.5753 10.1298 93.5278 10.1298C93.4795 10.1298 93.3992 10.0728 93.3482 10.0037C93.2981 9.93376 93.2057 9.8759 93.1435 9.8759C93.0822 9.8759 93.0313 9.8474 93.0313 9.81285C93.0313 9.77831 92.9734 9.74895 92.9043 9.74895C92.8344 9.74895 92.7774 9.72045 92.7774 9.68591C92.7774 9.65136 92.7195 9.622 92.6504 9.622C92.5805 9.622 92.5235 9.5935 92.5235 9.55896C92.5235 9.52441 92.4656 9.49505 92.3957 9.49505C92.3266 9.49505 92.2687 9.46655 92.2687 9.43201C92.2687 9.39746 92.2117 9.3681 92.1418 9.3681C92.0727 9.3681 92.0148 9.3396 92.0148 9.30506C92.0148 9.27052 91.9293 9.24115 91.8248 9.24115C91.7203 9.24115 91.634 9.21266 91.634 9.17811C91.634 9.14357 91.5485 9.11421 91.444 9.11421C91.3386 9.11421 91.2531 9.08571 91.2531 9.05116C91.2531 9.01662 91.1961 8.98726 91.1262 8.98726C91.0562 8.98726 90.9992 8.95876 90.9992 8.92421C90.9992 8.88967 90.9137 8.86031 90.8092 8.86031C90.7039 8.86031 90.6184 8.83181 90.6184 8.79727C90.6184 8.76272 90.5329 8.73336 90.4284 8.73336C90.323 8.73336 90.2375 8.70486 90.2375 8.67032C90.2375 8.63577 90.152 8.60641 90.0467 8.60641C89.9422 8.60641 89.8567 8.57791 89.8567 8.54337C89.8567 8.50883 89.7427 8.47946 89.6028 8.47946C89.4629 8.47946 89.3489 8.45096 89.3489 8.41642C89.3489 8.38188 89.2634 8.35251 89.158 8.35251C89.0536 8.35251 88.968 8.32402 88.968 8.28947C88.968 8.25493 88.8532 8.22557 88.7142 8.22557C88.5742 8.22557 88.4603 8.19707 88.4603 8.16252C88.4603 8.12798 88.3739 8.09862 88.2694 8.09862C88.1649 8.09862 88.0786 8.07012 88.0786 8.03557C88.0786 8.00103 87.993 7.97167 87.8886 7.97167C87.7841 7.97167 87.6977 7.94317 87.6977 7.90776C87.6977 7.87322 87.6122 7.84472 87.5077 7.84472C87.4032 7.84472 87.3169 7.81622 87.3169 7.78081C87.3169 7.74627 87.2599 7.71777 87.1899 7.71777C87.12 7.71777 87.063 7.68927 87.063 7.65387C87.063 7.61932 87.006 7.59082 86.936 7.59082C86.8669 7.59082 86.8091 7.56233 86.8091 7.52692C86.8091 7.49237 86.7521 7.46388 86.6821 7.46388C86.613 7.46388 86.5552 7.43538 86.5552 7.39997C86.5552 7.36543 86.512 7.33693 86.4584 7.33693C86.3332 7.33693 85.5396 6.54242 85.5396 6.4172C85.5396 6.36452 85.5111 6.32134 85.4757 6.32134C85.4377 6.32134 85.4126 6.05017 85.4126 5.63651C85.4126 5.02508 85.4264 4.94218 85.5396 4.861C85.6087 4.81005 85.6665 4.73146 85.6665 4.68569C85.6665 4.56997 86.0854 4.16235 86.2037 4.16235C86.2572 4.16235 86.3013 4.13385 86.3013 4.09931C86.3013 4.06476 86.3583 4.0354 86.4282 4.0354C86.4973 4.0354 86.5552 4.0069 86.5552 3.97236C86.5552 3.93782 86.6415 3.90845 86.7452 3.90845C86.8505 3.90845 86.936 3.87996 86.936 3.84541C86.936 3.81087 87.0794 3.78151 87.2538 3.78151C87.4283 3.78151 87.5708 3.75301 87.5708 3.7176C87.5708 3.67787 87.9939 3.65456 88.7142 3.65456C89.4335 3.65456 89.8567 3.67787 89.8567 3.7176C89.8567 3.75301 90.026 3.78151 90.2375 3.78151C90.4491 3.78151 90.6184 3.81 90.6184 3.84541C90.6184 3.87996 90.7324 3.90845 90.8723 3.90845C91.0122 3.90845 91.1262 3.93695 91.1262 3.97236C91.1262 4.0069 91.2117 4.0354 91.317 4.0354C91.4215 4.0354 91.507 4.0639 91.507 4.09931C91.507 4.13385 91.5934 4.16235 91.6979 4.16235C91.8024 4.16235 91.8879 4.19085 91.8879 4.22626C91.8879 4.2608 91.9457 4.2893 92.0148 4.2893C92.0848 4.2893 92.1418 4.3178 92.1418 4.35321C92.1418 4.38775 92.1996 4.41625 92.2687 4.41625C92.3387 4.41625 92.3957 4.44475 92.3957 4.48015C92.3957 4.5147 92.4535 4.5432 92.5235 4.5432C92.5926 4.5432 92.6504 4.57169 92.6504 4.6071C92.6504 4.64165 92.7074 4.67015 92.7774 4.67015C92.8465 4.67015 92.9043 4.69864 92.9043 4.73405C92.9043 4.76859 92.9613 4.79709 93.0313 4.79709C93.1012 4.79709 93.1582 4.82559 93.1582 4.861C93.1582 4.89554 93.2092 4.92404 93.2705 4.92404C93.3327 4.92404 93.4251 4.98104 93.4752 5.05099C93.5261 5.12094 93.6116 5.17794 93.666 5.17794C93.7204 5.17794 93.8059 5.23494 93.856 5.30489C93.907 5.37484 93.9985 5.43184 94.0607 5.43184C94.1315 5.43184 94.1738 5.38434 94.1738 5.30489C94.1738 5.2358 94.2023 5.17794 94.2368 5.17794C94.2723 5.17794 94.3008 5.09244 94.3008 4.98795C94.3008 4.88259 94.3293 4.79796 94.3638 4.79796C94.3992 4.79796 94.4277 4.7401 94.4277 4.67015C94.4277 4.60106 94.4562 4.5432 94.4907 4.5432C94.5262 4.5432 94.5546 4.4862 94.5546 4.41625C94.5546 4.34716 94.5831 4.2893 94.6186 4.2893C94.6531 4.2893 94.6816 4.2323 94.6816 4.16235C94.6816 4.09326 94.7101 4.0354 94.7455 4.0354C94.7801 4.0354 94.8085 3.98445 94.8085 3.92313C94.8085 3.86009 94.8655 3.76769 94.9355 3.7176C95.0054 3.66751 95.0624 3.57597 95.0624 3.51379C95.0624 3.45161 95.0909 3.40066 95.1264 3.40066C95.1609 3.40066 95.1894 3.34366 95.1894 3.27371C95.1894 3.20376 95.2179 3.14676 95.2533 3.14676C95.2878 3.14676 95.3163 3.08977 95.3163 3.01981C95.3163 2.94986 95.3448 2.89287 95.3802 2.89287C95.4148 2.89287 95.4433 2.84796 95.4433 2.79269C95.4433 2.6761 95.2939 2.51202 95.1877 2.51202C95.1471 2.51202 95.0331 2.42566 94.9355 2.32203C94.8379 2.21667 94.7118 2.13117 94.6566 2.13117C94.6004 2.13117 94.5546 2.10268 94.5546 2.06727C94.5546 2.03272 94.5037 2.00423 94.4415 2.00423C94.3793 2.00423 94.2878 1.94637 94.2368 1.87728C94.1868 1.80733 94.0952 1.75033 94.033 1.75033C93.9709 1.75033 93.9199 1.72097 93.9199 1.68642C93.9199 1.65188 93.8629 1.62252 93.793 1.62252C93.723 1.62252 93.666 1.59402 93.666 1.55947C93.666 1.52493 93.5805 1.49557 93.4752 1.49557C93.3707 1.49557 93.2852 1.46707 93.2852 1.43253C93.2852 1.39798 93.2282 1.36862 93.1582 1.36862C93.0883 1.36862 93.0313 1.34012 93.0313 1.30558C93.0313 1.27103 92.9449 1.24167 92.8404 1.24167C92.7359 1.24167 92.6504 1.21317 92.6504 1.17863C92.6504 1.14409 92.5641 1.11472 92.4596 1.11472C92.3551 1.11472 92.2687 1.08622 92.2687 1.05168C92.2687 1.01714 92.1547 0.987774 92.0148 0.987774C91.8758 0.987774 91.7609 0.959276 91.7609 0.924732C91.7609 0.890188 91.6469 0.860826 91.507 0.860826C91.368 0.860826 91.2531 0.832327 91.2531 0.797783C91.2531 0.76324 91.1391 0.733877 90.9992 0.733877C90.8593 0.733877 90.7453 0.705379 90.7453 0.670835C90.7453 0.6337 90.5338 0.606929 90.2375 0.606929C89.9413 0.606929 89.7297 0.581021 89.7297 0.543887C89.7297 0.503298 89.3066 0.47998 88.5872 0.47998C87.867 0.47998 87.4438 0.503298 87.4438 0.543887ZM1.10156 10.1937V19.5266H14.4337V16.6068H4.53004V8.82317C4.53004 2.16399 4.51622 1.02836 4.43936 0.95064C4.36509 0.878098 4.04729 0.860826 2.72512 0.860826H1.10156V10.1937ZM24.9886 1.02145C24.9085 1.10793 24.8583 1.2178 24.8452 1.33494C24.8452 1.42389 24.8167 1.49557 24.7822 1.49557C24.7477 1.49557 24.7183 1.55343 24.7183 1.62252C24.7183 1.69247 24.6898 1.75033 24.6553 1.75033C24.6207 1.75033 24.5914 1.80733 24.5914 1.87728C24.5914 1.94637 24.5629 2.00423 24.5283 2.00423C24.4938 2.00423 24.4644 2.06122 24.4644 2.13117C24.4644 2.20026 24.4359 2.25812 24.4014 2.25812C24.3668 2.25812 24.3375 2.34362 24.3375 2.44811C24.3375 2.55261 24.309 2.63811 24.2744 2.63811C24.2399 2.63811 24.2105 2.69597 24.2105 2.76592C24.2105 2.835 24.182 2.89287 24.1475 2.89287C24.1129 2.89287 24.0836 2.94986 24.0836 3.01981C24.0836 3.0889 24.0551 3.14676 24.0205 3.14676C23.986 3.14676 23.9566 3.20376 23.9566 3.27371C23.9566 3.3428 23.9281 3.40066 23.8936 3.40066C23.859 3.40066 23.8297 3.48702 23.8297 3.59065C23.8297 3.69601 23.8012 3.78151 23.7666 3.78151C23.7321 3.78151 23.7027 3.8385 23.7027 3.90845C23.7027 3.97754 23.6742 4.0354 23.6397 4.0354C23.6051 4.0354 23.5758 4.0924 23.5758 4.16235C23.5758 4.2323 23.5473 4.2893 23.5127 4.2893C23.4782 4.2893 23.4488 4.3463 23.4488 4.41625C23.4488 4.4862 23.4203 4.5432 23.3858 4.5432C23.3512 4.5432 23.3219 4.62956 23.3219 4.73319C23.3219 4.83855 23.2934 4.92404 23.2588 4.92404C23.2243 4.92404 23.1949 4.98104 23.1949 5.05099C23.1949 5.12094 23.1664 5.17794 23.1319 5.17794C23.0973 5.17794 23.068 5.23494 23.068 5.30489C23.068 5.37484 23.0395 5.43184 23.0049 5.43184C22.9704 5.43184 22.941 5.4897 22.941 5.55878C22.941 5.62874 22.9125 5.68573 22.878 5.68573C22.8426 5.68573 22.8141 5.77209 22.8141 5.87659C22.8141 5.98108 22.7856 6.06658 22.7502 6.06658C22.7156 6.06658 22.6871 6.12444 22.6871 6.19439C22.6871 6.26348 22.6586 6.32134 22.6232 6.32134C22.5887 6.32134 22.5602 6.37834 22.5602 6.44829C22.5602 6.51737 22.5317 6.57524 22.4963 6.57524C22.4617 6.57524 22.4332 6.65469 22.4332 6.75141C22.4332 6.85504 22.3814 6.96558 22.3063 7.01912C22.2667 7.05162 22.2348 7.09247 22.2128 7.13876C22.1909 7.18504 22.1794 7.23561 22.1793 7.28684C22.1793 7.38442 22.1508 7.46388 22.1154 7.46388C22.0809 7.46388 22.0524 7.52087 22.0524 7.59082C22.0524 7.65991 22.0239 7.71777 21.9885 7.71777C21.9539 7.71777 21.9254 7.77477 21.9254 7.84472C21.9254 7.91381 21.8969 7.97167 21.8615 7.97167C21.827 7.97167 21.7985 8.02867 21.7985 8.09862C21.7985 8.16771 21.77 8.22557 21.7346 8.22557C21.7 8.22557 21.6715 8.31192 21.6715 8.41556C21.6715 8.52092 21.643 8.60641 21.6076 8.60641C21.5731 8.60641 21.5446 8.66341 21.5446 8.73336C21.5446 8.80331 21.5161 8.86031 21.4807 8.86031C21.4461 8.86031 21.4176 8.94667 21.4176 9.0503C21.4176 9.15566 21.3883 9.24115 21.3537 9.24115C21.3192 9.24115 21.2907 9.29902 21.2907 9.3681C21.2907 9.43805 21.2613 9.49505 21.2268 9.49505C21.1922 9.49505 21.1637 9.55205 21.1637 9.622C21.1637 9.69195 21.1344 9.74895 21.0998 9.74895C21.0653 9.74895 21.0368 9.80681 21.0368 9.8759C21.0368 9.94585 21.0074 10.0028 20.9729 10.0028C20.9383 10.0028 20.9098 10.0607 20.9098 10.1298C20.9098 10.1997 20.8805 10.2576 20.8459 10.2576C20.8114 10.2576 20.782 10.3146 20.782 10.3846C20.782 10.4536 20.7535 10.5115 20.719 10.5115C20.6844 10.5115 20.6551 10.5685 20.6551 10.6385C20.6551 10.7075 20.6266 10.7654 20.592 10.7654C20.5575 10.7654 20.5281 10.8509 20.5281 10.9554C20.5281 11.0599 20.4996 11.1454 20.4651 11.1454C20.4305 11.1454 20.4012 11.2032 20.4012 11.2732C20.4012 11.3423 20.3727 11.4001 20.3381 11.4001C20.3036 11.4001 20.2742 11.4865 20.2742 11.5901C20.2742 11.6955 20.2457 11.7801 20.2112 11.7801C20.1767 11.7801 20.1473 11.838 20.1473 11.9079C20.1473 11.977 20.1188 12.0349 20.0842 12.0349C20.0497 12.0349 20.0203 12.0919 20.0203 12.1618C20.0203 12.2309 19.9918 12.2888 19.9573 12.2888C19.9228 12.2888 19.8934 12.3458 19.8934 12.4157C19.8934 12.4848 19.8649 12.5427 19.8304 12.5427C19.7958 12.5427 19.7664 12.629 19.7664 12.7327C19.7664 12.838 19.7379 12.9235 19.7034 12.9235C19.6689 12.9235 19.6395 12.9805 19.6395 13.0505C19.6395 13.1204 19.611 13.1774 19.5765 13.1774C19.5419 13.1774 19.5125 13.2344 19.5125 13.3044C19.5125 13.3743 19.4841 13.4313 19.4495 13.4313C19.415 13.4313 19.3856 13.4883 19.3856 13.5583C19.3856 13.6282 19.3571 13.6852 19.3226 13.6852C19.288 13.6852 19.2587 13.7422 19.2587 13.8122C19.2587 13.8821 19.2302 13.9391 19.1956 13.9391C19.1611 13.9391 19.1317 14.0255 19.1317 14.13C19.1317 14.2345 19.1032 14.32 19.0687 14.32C19.0341 14.32 19.0048 14.3778 19.0048 14.4469C19.0048 14.5169 18.9763 14.5747 18.9417 14.5747C18.9072 14.5747 18.8778 14.6317 18.8778 14.7017C18.8778 14.7708 18.8493 14.8286 18.8139 14.8286C18.7794 14.8286 18.7509 14.9141 18.7509 15.0186C18.7509 15.124 18.7224 15.2086 18.6878 15.2086C18.6524 15.2086 18.6239 15.2665 18.6239 15.3364C18.6239 15.4055 18.5954 15.4634 18.56 15.4634C18.5255 15.4634 18.497 15.5204 18.497 15.5903C18.497 15.6594 18.4685 15.7173 18.4331 15.7173C18.3985 15.7173 18.37 15.7743 18.37 15.8442C18.37 15.9133 18.3415 15.9712 18.3061 15.9712C18.2716 15.9712 18.2431 16.0575 18.2431 16.1611C18.2431 16.2665 18.2146 16.352 18.1792 16.352C18.1446 16.352 18.1161 16.409 18.1161 16.4789C18.1161 16.548 18.0876 16.6059 18.0522 16.6059C18.0177 16.6059 17.9892 16.6629 17.9892 16.7328C17.9892 16.8019 17.9607 16.8598 17.9253 16.8598C17.8907 16.8598 17.8622 16.9168 17.8622 16.9867C17.8622 17.0567 17.8337 17.1137 17.7983 17.1137C17.7638 17.1137 17.7353 17.1707 17.7353 17.2406C17.7353 17.3106 17.7068 17.3676 17.6714 17.3676C17.6368 17.3676 17.6083 17.4539 17.6083 17.5576C17.6083 17.6629 17.5798 17.7484 17.5444 17.7484C17.5099 17.7484 17.4814 17.8063 17.4814 17.8754C17.4814 17.9453 17.4529 18.0023 17.4175 18.0023C17.3829 18.0023 17.3544 18.0593 17.3544 18.1293C17.3544 18.1992 17.3259 18.2562 17.2905 18.2562C17.256 18.2562 17.2275 18.3426 17.2275 18.4471C17.2275 18.5516 17.1981 18.6371 17.1636 18.6371C17.129 18.6371 17.1005 18.6949 17.1005 18.7649C17.1005 18.834 17.0712 18.8918 17.0366 18.8918C17.0021 18.8918 16.9736 18.9488 16.9736 19.0188C16.9736 19.0879 16.9442 19.1457 16.9097 19.1457C16.8751 19.1457 16.8458 19.2027 16.8458 19.2727C16.8458 19.3418 16.8173 19.3996 16.7827 19.3996C16.7661 19.3998 16.7502 19.4066 16.7384 19.4183C16.7266 19.4301 16.7199 19.446 16.7197 19.4627C16.7197 19.5033 17.3544 19.5266 18.497 19.5266C20.2328 19.5266 20.2742 19.5231 20.2742 19.3996C20.2742 19.3297 20.3027 19.2727 20.3381 19.2727C20.3727 19.2727 20.4012 19.2148 20.4012 19.1457C20.4012 19.0758 20.4305 19.0188 20.4651 19.0188C20.4996 19.0188 20.5281 18.9324 20.5281 18.8288C20.5281 18.7234 20.5575 18.6371 20.592 18.6371C20.6266 18.6371 20.6551 18.5801 20.6551 18.511C20.6551 18.441 20.6844 18.3832 20.719 18.3832C20.7535 18.3832 20.782 18.2977 20.782 18.1932C20.782 18.0887 20.8114 18.0032 20.8459 18.0032C20.8805 18.0032 20.909 17.9453 20.909 17.8754C20.909 17.8063 20.9383 17.7484 20.9729 17.7484C21.0074 17.7484 21.0359 17.6914 21.0359 17.6215C21.0359 17.5524 21.0653 17.4945 21.0998 17.4945C21.1344 17.4945 21.1637 17.4375 21.1637 17.3676C21.1637 17.2985 21.1922 17.2406 21.2268 17.2406C21.2613 17.2406 21.2907 17.1551 21.2907 17.0506C21.2907 16.9453 21.3192 16.8607 21.3537 16.8607C21.3883 16.8607 21.4176 16.8028 21.4176 16.7328C21.4176 16.6638 21.4461 16.6059 21.4807 16.6059C21.5152 16.6059 21.5446 16.5489 21.5446 16.4789C21.5446 16.4099 21.5731 16.352 21.6076 16.352C21.6422 16.352 21.6715 16.2656 21.6715 16.162C21.6715 16.0566 21.7 15.9712 21.7346 15.9712C21.7691 15.9712 21.7985 15.9142 21.7985 15.8442C21.7985 15.7743 21.827 15.7173 21.8615 15.7173C21.8961 15.7173 21.9254 15.6723 21.9254 15.6171C21.9254 15.3304 21.8132 15.3364 27.031 15.3364C31.71 15.3364 31.9561 15.3416 31.9561 15.4487C31.9561 15.5117 32.0131 15.6033 32.083 15.6533C32.1227 15.6858 32.1547 15.7266 32.1767 15.7729C32.1986 15.8192 32.21 15.8698 32.21 15.9211C32.21 16.0187 32.2385 16.0981 32.2739 16.0981C32.3084 16.0981 32.3369 16.1551 32.3369 16.225C32.3369 16.2941 32.3654 16.352 32.4008 16.352C32.4354 16.352 32.4639 16.409 32.4639 16.4789C32.4639 16.548 32.4924 16.6059 32.5278 16.6059C32.5623 16.6059 32.5908 16.6629 32.5908 16.7328C32.5908 16.8019 32.6193 16.8598 32.6547 16.8598C32.6893 16.8598 32.7178 16.9168 32.7178 16.9867C32.7178 17.0567 32.7463 17.1137 32.7817 17.1137C32.8162 17.1137 32.8447 17.2 32.8447 17.3037C32.8447 17.409 32.8732 17.4945 32.9086 17.4945C32.9432 17.4945 32.9717 17.5515 32.9717 17.6215C32.9717 17.6914 33.0002 17.7484 33.0356 17.7484C33.0701 17.7484 33.0986 17.8063 33.0986 17.8754C33.0986 17.9453 33.128 18.0023 33.1625 18.0023C33.1971 18.0023 33.2256 18.0593 33.2256 18.1293C33.2256 18.1992 33.2541 18.2562 33.2895 18.2562C33.324 18.2562 33.3534 18.3141 33.3534 18.3832C33.3534 18.4531 33.381 18.511 33.4164 18.511C33.451 18.511 33.4803 18.568 33.4803 18.6371C33.4803 18.707 33.5088 18.7649 33.5434 18.7649C33.5779 18.7649 33.6073 18.8219 33.6073 18.8918C33.6073 18.9609 33.6358 19.0188 33.6703 19.0188C33.7049 19.0188 33.7334 19.0758 33.7334 19.1457C33.7334 19.2148 33.7627 19.2727 33.7973 19.2727C33.8318 19.2727 33.8612 19.3297 33.8612 19.3996C33.8612 19.524 33.9035 19.5266 35.8293 19.5266C37.0988 19.5266 37.7966 19.5041 37.7966 19.4627C37.7964 19.446 37.7896 19.4301 37.7779 19.4183C37.7661 19.4066 37.7502 19.3998 37.7335 19.3996C37.699 19.3996 37.6696 19.3426 37.6696 19.2727C37.6696 19.2027 37.6411 19.1457 37.6066 19.1457C37.5721 19.1457 37.5427 19.0887 37.5427 19.0188C37.5427 18.9488 37.5142 18.8918 37.4796 18.8918C37.4451 18.8918 37.4157 18.834 37.4157 18.7649C37.4157 18.6949 37.3872 18.6371 37.3527 18.6371C37.3182 18.6371 37.2888 18.5801 37.2888 18.511C37.2888 18.441 37.2603 18.3832 37.2257 18.3832C37.1912 18.3832 37.1618 18.2977 37.1618 18.1932C37.1618 18.0887 37.1333 18.0032 37.0988 18.0032C37.0643 18.0032 37.0349 17.9453 37.0349 17.8754C37.0349 17.8063 37.0064 17.7484 36.9719 17.7484C36.9373 17.7484 36.9079 17.6914 36.9079 17.6215C36.9079 17.5524 36.8794 17.4945 36.8449 17.4945C36.8104 17.4945 36.781 17.4375 36.781 17.3676C36.781 17.2985 36.7525 17.2406 36.718 17.2406C36.6834 17.2406 36.6541 17.1836 36.6541 17.1137C36.6541 17.0446 36.6256 16.9867 36.591 16.9867C36.5565 16.9867 36.5271 16.9297 36.5271 16.8598C36.5271 16.7907 36.4986 16.7328 36.4641 16.7328C36.4295 16.7328 36.4002 16.6758 36.4002 16.6059C36.4002 16.5368 36.3717 16.4789 36.3371 16.4789C36.3026 16.4789 36.2732 16.4219 36.2732 16.352C36.2732 16.2829 36.2447 16.225 36.2102 16.225C36.1756 16.225 36.1463 16.1681 36.1463 16.0981C36.1463 16.029 36.1178 15.9712 36.0832 15.9712C36.0487 15.9712 36.0193 15.9142 36.0193 15.8442C36.0193 15.7743 35.9908 15.7173 35.9563 15.7173C35.9217 15.7173 35.8924 15.6603 35.8924 15.5903C35.8924 15.5204 35.8639 15.4634 35.8285 15.4634C35.7939 15.4634 35.7654 15.4064 35.7654 15.3364C35.7654 15.2665 35.7369 15.2095 35.7024 15.2095C35.6678 15.2095 35.6385 15.1231 35.6385 15.0195C35.6385 14.9141 35.61 14.8286 35.5746 14.8286C35.54 14.8286 35.5115 14.7708 35.5115 14.7017C35.5115 14.6317 35.483 14.5747 35.4476 14.5747C35.4131 14.5747 35.3846 14.5169 35.3846 14.4469C35.3846 14.3778 35.3561 14.3208 35.3207 14.3208C35.2861 14.3208 35.2576 14.263 35.2576 14.193C35.2576 14.1239 35.2291 14.0661 35.1937 14.0661C35.1592 14.0661 35.1307 14.0091 35.1307 13.9391C35.1307 13.87 35.1022 13.8122 35.0668 13.8122C35.0322 13.8122 35.0037 13.7552 35.0037 13.6852C35.0037 13.6161 34.9752 13.5583 34.9398 13.5583C34.9053 13.5583 34.8768 13.5013 34.8768 13.4313C34.8768 13.3622 34.8483 13.3044 34.8129 13.3044C34.7783 13.3044 34.7498 13.2474 34.7498 13.1774C34.7498 13.1083 34.7213 13.0505 34.6859 13.0505C34.6514 13.0505 34.6229 12.9935 34.6229 12.9235C34.6229 12.8544 34.5944 12.7966 34.559 12.7966C34.5244 12.7966 34.4959 12.7396 34.4959 12.6696C34.4959 12.6005 34.4674 12.5427 34.432 12.5427C34.3975 12.5427 34.369 12.4857 34.369 12.4157C34.369 12.3466 34.3405 12.2888 34.3051 12.2888C34.2705 12.2888 34.242 12.2318 34.242 12.1618C34.242 12.0927 34.2135 12.0349 34.1781 12.0349C34.1436 12.0349 34.1151 11.9485 34.1151 11.8449C34.1151 11.7395 34.0857 11.654 34.0512 11.654C34.0166 11.654 33.9881 11.597 33.9881 11.5271C33.9881 11.4571 33.9596 11.4001 33.9242 11.4001C33.8897 11.4001 33.8612 11.3431 33.8612 11.2732C33.8612 11.2032 33.8327 11.1462 33.7973 11.1462C33.7627 11.1462 33.7334 11.0892 33.7334 11.0193C33.7334 10.9493 33.7049 10.8923 33.6703 10.8923C33.6358 10.8923 33.6064 10.8354 33.6064 10.7654C33.6064 10.6954 33.5779 10.6385 33.5434 10.6385C33.5088 10.6385 33.4803 10.5815 33.4803 10.5115C33.4803 10.4416 33.451 10.3846 33.4164 10.3846C33.3819 10.3846 33.3534 10.3267 33.3534 10.2576C33.3534 10.1877 33.324 10.1298 33.2895 10.1298C33.2549 10.1298 33.2256 10.0728 33.2256 10.0037C33.2256 9.93376 33.1971 9.8759 33.1625 9.8759C33.128 9.8759 33.0986 9.8189 33.0986 9.74895C33.0986 9.67986 33.0701 9.622 33.0356 9.622C33.001 9.622 32.9717 9.565 32.9717 9.49505C32.9717 9.42596 32.9432 9.3681 32.9086 9.3681C32.8741 9.3681 32.8447 9.3111 32.8447 9.24115C32.8447 9.17207 32.8162 9.11421 32.7817 9.11421C32.7471 9.11421 32.7178 9.05721 32.7178 8.98726C32.7178 8.91817 32.6893 8.86031 32.6547 8.86031C32.6202 8.86031 32.5908 8.77481 32.5908 8.67032C32.5908 8.56496 32.5623 8.48033 32.5278 8.48033C32.4932 8.48033 32.4639 8.42247 32.4639 8.35251C32.4639 8.28343 32.4354 8.22557 32.4008 8.22557C32.3663 8.22557 32.3369 8.16857 32.3369 8.09862C32.3369 8.02953 32.3084 7.97167 32.2739 7.97167C32.2394 7.97167 32.21 7.91467 32.21 7.84472C32.21 7.77563 32.1815 7.71777 32.1469 7.71777C32.1124 7.71777 32.083 7.66077 32.083 7.59082C32.083 7.52087 32.0545 7.46388 32.02 7.46388C31.9855 7.46388 31.9561 7.40688 31.9561 7.33693C31.9561 7.26698 31.9276 7.20998 31.8931 7.20998C31.8585 7.20998 31.8291 7.15298 31.8291 7.08303C31.8291 7.01308 31.8006 6.95608 31.7661 6.95608C31.7316 6.95608 31.7022 6.89908 31.7022 6.82913C31.7022 6.75918 31.6737 6.70218 31.6383 6.70218C31.6037 6.70218 31.5752 6.64519 31.5752 6.57524C31.5752 6.50528 31.5467 6.44829 31.5113 6.44829C31.4768 6.44829 31.4483 6.39043 31.4483 6.32134C31.4483 6.25139 31.4198 6.19439 31.3844 6.19439C31.3498 6.19439 31.3213 6.13653 31.3213 6.06744C31.3213 5.99749 31.2929 5.94049 31.2583 5.94049C31.2229 5.94049 31.1944 5.88263 31.1944 5.81268C31.1944 5.74359 31.1659 5.68573 31.1305 5.68573C31.096 5.68573 31.0675 5.62874 31.0675 5.55878C31.0675 5.4897 31.039 5.43184 31.0035 5.43184C30.969 5.43184 30.9405 5.37484 30.9405 5.30489C30.9405 5.2358 30.912 5.17794 30.8766 5.17794C30.8421 5.17794 30.8136 5.09849 30.8136 5.00177C30.8136 4.89813 30.7617 4.78759 30.6866 4.73405C30.6489 4.70292 30.6182 4.66425 30.5963 4.62052C30.5744 4.5768 30.5619 4.52899 30.5597 4.48015C30.5574 4.43132 30.5449 4.38351 30.523 4.33978C30.5012 4.29606 30.4704 4.25739 30.4327 4.22626C30.3931 4.1938 30.3611 4.15296 30.3392 4.10666C30.3172 4.06037 30.3058 4.00978 30.3058 3.95854C30.3058 3.86096 30.2773 3.78151 30.2419 3.78151C30.2073 3.78151 30.1788 3.72451 30.1788 3.65456C30.1788 3.58547 30.1503 3.52761 30.1149 3.52761C30.0804 3.52761 30.0519 3.47061 30.0519 3.40066C30.0519 3.33071 30.0234 3.27371 29.988 3.27371C29.9534 3.27371 29.9249 3.21671 29.9249 3.14676C29.9249 3.07681 29.8964 3.01981 29.861 3.01981C29.8265 3.01981 29.798 2.96282 29.798 2.89287C29.798 2.82291 29.7686 2.76592 29.7341 2.76592C29.6995 2.76592 29.671 2.70892 29.671 2.63897C29.671 2.56902 29.6417 2.51202 29.6071 2.51202C29.5726 2.51202 29.5441 2.45502 29.5441 2.38507C29.5441 2.31512 29.5156 2.25812 29.4802 2.25812C29.4456 2.25812 29.4171 2.20026 29.4171 2.13117C29.4171 2.06122 29.3878 2.00423 29.3532 2.00423C29.3187 2.00423 29.2893 1.94637 29.2893 1.87728C29.2893 1.80733 29.2608 1.75033 29.2263 1.75033C29.1917 1.75033 29.1624 1.69247 29.1624 1.62252C29.1624 1.55343 29.1339 1.49557 29.0993 1.49557C29.0648 1.49557 29.0354 1.43857 29.0354 1.36862C29.0354 1.29953 29.0069 1.24167 28.9724 1.24167C28.9378 1.24167 28.9085 1.19676 28.9085 1.14236C28.9085 0.874643 28.8135 0.860826 26.9291 0.865144L25.1311 0.868598L24.9886 1.02145ZM97.7292 2.29439C97.7292 3.45161 97.7465 3.74523 97.8199 3.81778C97.8959 3.89377 98.4063 3.90845 100.994 3.90845H104.078V19.5266H107.379V3.90845H113.982V0.860826H97.7292V2.29439ZM116.902 10.1937V19.5266H131.504V16.6068H120.33V11.6532H125.028C129.684 11.6532 129.726 11.6523 129.726 11.5262C129.726 11.4563 129.755 11.3993 129.79 11.3993C129.83 11.3993 129.853 11.0392 129.853 10.4467C129.853 9.85431 129.83 9.49419 129.79 9.49419C129.699 9.49419 129.712 9.25756 129.806 9.21438C129.87 9.18416 129.87 9.16948 129.806 9.14011C129.763 9.11939 129.726 9.01921 129.726 8.91817V8.7325H120.33V3.90932H131.124V0.860826H116.902V10.1937ZM69.1598 3.84541C69.1598 3.88168 69.3498 3.90845 69.6045 3.90845C69.8584 3.90845 70.0484 3.93609 70.0484 3.97236C70.0484 4.0069 70.1624 4.0354 70.3023 4.0354C70.4422 4.0354 70.5562 4.0639 70.5562 4.09931C70.5562 4.13385 70.6426 4.16235 70.7462 4.16235C70.8516 4.16235 70.937 4.19085 70.937 4.22626C70.937 4.2608 71.0234 4.2893 71.127 4.2893C71.2324 4.2893 71.3188 4.3178 71.3188 4.35321C71.3188 4.38775 71.3758 4.41625 71.4457 4.41625C71.5148 4.41625 71.5727 4.44475 71.5727 4.48015C71.5727 4.5147 71.6297 4.5432 71.6996 4.5432C71.7687 4.5432 71.8266 4.57169 71.8266 4.6071C71.8266 4.64165 71.8766 4.67015 71.9388 4.67015C72.001 4.67015 72.0934 4.72714 72.1435 4.79709C72.1944 4.86704 72.2739 4.92404 72.3214 4.92404C72.3689 4.92404 72.5174 5.0389 72.6513 5.17794C72.786 5.31784 72.9276 5.43184 72.9665 5.43184C73.058 5.43184 73.4769 5.85154 73.4769 5.94308C73.4769 5.98195 73.5909 6.12358 73.7308 6.25743C73.8707 6.39129 73.9847 6.54069 73.9847 6.58733C73.9847 6.63482 74.0417 6.71514 74.1116 6.76523C74.1816 6.81618 74.2386 6.90772 74.2386 6.9699C74.2386 7.03208 74.2671 7.08217 74.3025 7.08217C74.337 7.08217 74.3655 7.14003 74.3655 7.20998C74.3655 7.27907 74.394 7.33693 74.4294 7.33693C74.464 7.33693 74.4925 7.39392 74.4925 7.46388C74.4925 7.53296 74.521 7.59082 74.5564 7.59082C74.5909 7.59082 74.6194 7.67718 74.6194 7.78081C74.6194 7.88617 74.6479 7.97167 74.6833 7.97167C74.7179 7.97167 74.7464 8.05803 74.7464 8.16166C74.7464 8.26702 74.7749 8.35251 74.8103 8.35251C74.8448 8.35251 74.8733 8.46651 74.8733 8.60641C74.8733 8.74631 74.9018 8.86031 74.9372 8.86031C74.9718 8.86031 75.0003 9.02957 75.0003 9.24115C75.0003 9.45273 75.0288 9.622 75.0642 9.622C75.1022 9.622 75.1272 9.85517 75.1272 10.1937C75.1272 10.5322 75.1013 10.7654 75.0642 10.7654C75.0279 10.7654 75.0003 10.9554 75.0003 11.2093C75.0003 11.4632 74.9735 11.654 74.9372 11.654C74.9027 11.654 74.8733 11.768 74.8733 11.9079C74.8733 12.0478 74.8448 12.1618 74.8103 12.1618C74.7757 12.1618 74.7464 12.2482 74.7464 12.3518C74.7464 12.4572 74.7179 12.5427 74.6833 12.5427C74.6488 12.5427 74.6194 12.5997 74.6194 12.6696C74.6194 12.7396 74.5909 12.7966 74.5564 12.7966C74.5218 12.7966 74.4925 12.8829 74.4925 12.9866C74.4925 13.0919 74.464 13.1774 74.4294 13.1774C74.3949 13.1774 74.3655 13.2292 74.3655 13.2906C74.3655 13.3527 74.3085 13.4443 74.2386 13.4952C74.1695 13.5453 74.1116 13.6308 74.1116 13.6852C74.1116 13.7396 74.0546 13.826 73.9847 13.8752C73.9156 13.927 73.8577 14.0047 73.8577 14.0497C73.8577 14.1567 72.6781 15.3364 72.571 15.3364C72.5261 15.3364 72.4483 15.3934 72.3983 15.4634C72.3464 15.5324 72.2549 15.5903 72.1927 15.5903C72.1305 15.5903 72.0804 15.6188 72.0804 15.6533C72.0804 15.6879 72.0286 15.7173 71.9673 15.7173C71.9051 15.7173 71.8127 15.7743 71.7626 15.8442C71.7126 15.9133 71.6202 15.9712 71.558 15.9712C71.4958 15.9712 71.4457 15.9997 71.4457 16.0342C71.4457 16.0687 71.3594 16.0981 71.2549 16.0981C71.1504 16.0981 71.0649 16.1266 71.0649 16.1611C71.0649 16.1957 71.007 16.225 70.937 16.225C70.868 16.225 70.8101 16.2535 70.8101 16.2881C70.8101 16.3226 70.6961 16.352 70.5562 16.352C70.4172 16.352 70.3023 16.3805 70.3023 16.415C70.3023 16.4496 70.1598 16.4789 69.9854 16.4789C69.8101 16.4789 69.6676 16.5074 69.6676 16.542C69.6676 16.5826 69.2651 16.6059 68.5881 16.6059C67.911 16.6059 67.5086 16.5826 67.5086 16.5429C67.5086 16.5083 67.3661 16.4789 67.1916 16.4789C67.0172 16.4789 66.8738 16.4504 66.8738 16.415C66.8738 16.3805 66.7598 16.352 66.6199 16.352C66.4809 16.352 66.366 16.3235 66.366 16.289C66.366 16.2535 66.309 16.225 66.2391 16.225C66.17 16.225 66.1121 16.1966 66.1121 16.1611C66.1121 16.1266 66.0266 16.0981 65.9221 16.0981C65.8168 16.0981 65.7322 16.0696 65.7322 16.0342C65.7322 15.9997 65.6743 15.9712 65.6043 15.9712C65.5353 15.9712 65.4774 15.9427 65.4774 15.9072C65.4774 15.8727 65.4264 15.8442 65.3651 15.8442C65.3021 15.8442 65.2097 15.7872 65.1605 15.7173C65.1095 15.6473 65.024 15.5903 64.9696 15.5903C64.9152 15.5903 64.8297 15.5333 64.7796 15.4634C64.7287 15.3934 64.6501 15.3364 64.6052 15.3364C64.4989 15.3364 63.3184 14.1567 63.3184 14.0497C63.3184 14.0047 63.2614 13.9262 63.1915 13.8761C63.1224 13.826 63.0654 13.7336 63.0654 13.6714C63.0654 13.6092 63.036 13.5591 63.0015 13.5591C62.9669 13.5591 62.9384 13.5073 62.9384 13.446C62.9384 13.3838 62.8806 13.2914 62.8106 13.2413C62.7415 13.1904 62.6837 13.0988 62.6837 13.0367C62.6837 12.9745 62.6552 12.9244 62.6206 12.9244C62.5861 12.9244 62.5567 12.838 62.5567 12.7335C62.5567 12.6282 62.5282 12.5435 62.4937 12.5435C62.4591 12.5435 62.4298 12.4572 62.4298 12.3527C62.4298 12.2473 62.4013 12.1618 62.3667 12.1618C62.3322 12.1618 62.3028 12.0755 62.3028 11.9718C62.3028 11.8665 62.2743 11.781 62.2398 11.781C62.2044 11.781 62.1759 11.6117 62.1759 11.4001C62.1759 11.1886 62.1482 11.0193 62.1128 11.0193C62.074 11.0193 62.0489 10.7231 62.0489 10.2567C62.0489 9.79213 62.074 9.49505 62.1128 9.49505C62.1474 9.49505 62.1759 9.32579 62.1759 9.11507C62.1759 8.90262 62.2044 8.73336 62.2398 8.73336C62.2743 8.73336 62.3028 8.61937 62.3028 8.47946C62.3028 8.33956 62.3313 8.22557 62.3667 8.22557C62.4013 8.22557 62.4298 8.13921 62.4298 8.03557C62.4298 7.93022 62.4583 7.84472 62.4937 7.84472C62.5282 7.84472 62.5567 7.78772 62.5567 7.71777C62.5567 7.64868 62.5861 7.59082 62.6206 7.59082C62.6552 7.59082 62.6837 7.53383 62.6837 7.46388C62.6837 7.39392 62.713 7.33693 62.7476 7.33693C62.7821 7.33693 62.8106 7.27993 62.8106 7.20998C62.8106 7.14003 62.8391 7.08303 62.8745 7.08303C62.9091 7.08303 62.9376 7.03121 62.9376 6.9699C62.9376 6.90772 62.9954 6.81618 63.0654 6.76523C63.1345 6.71514 63.1915 6.63482 63.1915 6.58646C63.1915 6.5381 63.2778 6.41892 63.3823 6.32134C63.4868 6.22289 63.5723 6.11062 63.5723 6.0709C63.5723 5.97935 64.119 5.43184 64.2114 5.43184C64.2494 5.43184 64.391 5.31784 64.5249 5.17794C64.6596 5.0389 64.8081 4.92404 64.8556 4.92404C64.9031 4.92404 64.9826 4.86704 65.0335 4.79709C65.0836 4.72801 65.1751 4.67015 65.2373 4.67015C65.2995 4.67015 65.3504 4.64165 65.3504 4.6071C65.3504 4.57256 65.4074 4.5432 65.4774 4.5432C65.5474 4.5432 65.6043 4.5147 65.6043 4.48015C65.6043 4.44561 65.6613 4.41625 65.7313 4.41625C65.8012 4.41625 65.8582 4.38775 65.8582 4.35321C65.8582 4.31866 65.9446 4.2893 66.0482 4.2893C66.1536 4.2893 66.2391 4.2608 66.2391 4.22626C66.2391 4.19171 66.3254 4.16235 66.4291 4.16235C66.5344 4.16235 66.6199 4.13385 66.6199 4.09931C66.6199 4.06476 66.7348 4.0354 66.8738 4.0354C67.0137 4.0354 67.1277 4.0069 67.1277 3.97236C67.1277 3.93609 67.3186 3.90845 67.5725 3.90845C67.8264 3.90845 68.0172 3.88168 68.0172 3.84541C68.0172 3.80741 68.2504 3.78151 68.5881 3.78151C68.9266 3.78151 69.1598 3.80741 69.1598 3.84541ZM26.9127 4.38084C26.9637 4.4321 26.9959 4.49902 27.0042 4.57083C27.0042 4.62524 27.0327 4.67015 27.0673 4.67015C27.1018 4.67015 27.1312 4.7565 27.1312 4.86014C27.1312 4.96549 27.1597 5.05099 27.1942 5.05099C27.2288 5.05099 27.2581 5.10799 27.2581 5.17794C27.2581 5.24789 27.2866 5.30489 27.322 5.30489C27.3566 5.30489 27.3851 5.36275 27.3851 5.43184C27.3851 5.50179 27.4136 5.55878 27.4481 5.55878C27.4835 5.55878 27.512 5.61665 27.512 5.68573C27.512 5.75568 27.5405 5.81268 27.5759 5.81268C27.6105 5.81268 27.639 5.87054 27.639 5.94049C27.639 6.00958 27.6675 6.06744 27.7029 6.06744C27.7374 6.06744 27.7659 6.12444 27.7659 6.19439C27.7659 6.26348 27.7944 6.32134 27.8298 6.32134C27.8644 6.32134 27.8929 6.37834 27.8929 6.44829C27.8929 6.51737 27.9214 6.57524 27.9568 6.57524C27.9913 6.57524 28.0198 6.66073 28.0198 6.76523C28.0198 6.87059 28.0483 6.95522 28.0837 6.95522C28.1183 6.95522 28.1468 7.01308 28.1468 7.08303C28.1468 7.15212 28.1753 7.20998 28.2107 7.20998C28.2452 7.20998 28.2737 7.26698 28.2737 7.33693C28.2737 7.40601 28.3022 7.46388 28.3376 7.46388C28.3722 7.46388 28.4007 7.52087 28.4007 7.59082C28.4007 7.65991 28.4292 7.71777 28.4646 7.71777C28.4991 7.71777 28.5276 7.80413 28.5276 7.90776C28.5276 8.01312 28.5561 8.09862 28.5915 8.09862C28.6261 8.09862 28.6546 8.15561 28.6546 8.22557C28.6546 8.29465 28.6831 8.35251 28.7185 8.35251C28.753 8.35251 28.7815 8.40951 28.7815 8.47946C28.7815 8.54941 28.81 8.60641 28.8454 8.60641C28.88 8.60641 28.9085 8.66341 28.9085 8.73336C28.9085 8.80331 28.937 8.86031 28.9724 8.86031C29.0069 8.86031 29.0354 8.91731 29.0354 8.98726C29.0354 9.05721 29.0648 9.11421 29.0993 9.11421C29.1339 9.11421 29.1632 9.1712 29.1632 9.24115C29.1632 9.3111 29.1909 9.3681 29.2263 9.3681C29.2608 9.3681 29.2893 9.4251 29.2893 9.49505C29.2893 9.565 29.3187 9.622 29.3532 9.622C29.3878 9.622 29.4171 9.70836 29.4171 9.81199C29.4171 9.91735 29.4456 10.0028 29.4802 10.0028C29.5147 10.0028 29.5441 10.0607 29.5441 10.1298C29.5441 10.1997 29.5726 10.2576 29.6071 10.2576C29.6417 10.2576 29.671 10.3146 29.671 10.3846C29.671 10.4536 29.6995 10.5115 29.7341 10.5115C29.7686 10.5115 29.798 10.5685 29.798 10.6385C29.798 10.7075 29.8265 10.7654 29.861 10.7654C29.8956 10.7654 29.9249 10.8509 29.9249 10.9554C29.9249 11.0599 29.9534 11.1454 29.988 11.1454C30.0225 11.1454 30.0519 11.2032 30.0519 11.2732C30.0519 11.3423 30.0804 11.4001 30.1149 11.4001C30.1495 11.4001 30.1788 11.4571 30.1788 11.5271C30.1788 11.5962 30.2073 11.654 30.2419 11.654C30.2764 11.654 30.3058 11.711 30.3058 11.781C30.3058 11.8501 30.3343 11.9079 30.3688 11.9079C30.4034 11.9079 30.4327 11.9649 30.4327 12.0349C30.4327 12.104 30.4612 12.1618 30.4958 12.1618C30.5303 12.1618 30.5597 12.2188 30.5597 12.2888C30.5597 12.414 30.5165 12.4157 26.9412 12.4157C23.3642 12.4157 23.3227 12.414 23.3227 12.2888C23.3227 12.2197 23.3504 12.1618 23.3858 12.1618C23.4203 12.1618 23.4488 12.1048 23.4488 12.0349C23.4488 11.9658 23.4773 11.9079 23.5127 11.9079C23.5473 11.9079 23.5758 11.8216 23.5758 11.7179C23.5758 11.6126 23.6043 11.5271 23.6397 11.5271C23.6742 11.5271 23.7027 11.4701 23.7027 11.4001C23.7027 11.3302 23.7312 11.2732 23.7666 11.2732C23.8012 11.2732 23.8297 11.2162 23.8297 11.1462C23.8297 11.0763 23.8582 11.0193 23.8936 11.0193C23.9281 11.0193 23.9566 10.9329 23.9566 10.8293C23.9566 10.7239 23.9851 10.6385 24.0205 10.6385C24.0551 10.6385 24.0836 10.5815 24.0836 10.5115C24.0836 10.4416 24.1121 10.3846 24.1475 10.3846C24.182 10.3846 24.2105 10.3267 24.2105 10.2576C24.2105 10.1877 24.239 10.1298 24.2744 10.1298C24.309 10.1298 24.3375 10.0443 24.3375 9.9398C24.3375 9.83531 24.366 9.74981 24.4014 9.74981C24.4359 9.74981 24.4644 9.69195 24.4644 9.622C24.4644 9.55291 24.4929 9.49505 24.5283 9.49505C24.5629 9.49505 24.5914 9.40956 24.5914 9.30506C24.5914 9.20057 24.6199 9.11507 24.6553 9.11507C24.6898 9.11507 24.7183 9.05721 24.7183 8.98726C24.7183 8.91817 24.7477 8.86031 24.7822 8.86031C24.8167 8.86031 24.8452 8.80331 24.8452 8.73336C24.8452 8.66427 24.8737 8.60641 24.9092 8.60641C24.9437 8.60641 24.9722 8.52005 24.9722 8.41642C24.9722 8.31106 25.0016 8.22643 25.0361 8.22643C25.0706 8.22643 25.1 8.16857 25.1 8.09862C25.1 8.02953 25.1285 7.97167 25.1631 7.97167C25.1976 7.97167 25.2261 7.91467 25.2261 7.84472C25.2261 7.77563 25.2555 7.71777 25.29 7.71777C25.3245 7.71777 25.3539 7.66077 25.3539 7.59082C25.3539 7.52087 25.3824 7.46388 25.4169 7.46388C25.4515 7.46388 25.4809 7.37752 25.4809 7.27388C25.4809 7.16853 25.5094 7.08303 25.5439 7.08303C25.5784 7.08303 25.6078 7.02603 25.6078 6.95608C25.6078 6.88613 25.6363 6.82913 25.6708 6.82913C25.7054 6.82913 25.7348 6.77214 25.7348 6.70218C25.7348 6.63223 25.7633 6.57524 25.7978 6.57524C25.8323 6.57524 25.8617 6.48888 25.8617 6.38524C25.8617 6.27989 25.8902 6.19439 25.9247 6.19439C25.9593 6.19439 25.9886 6.13653 25.9886 6.06744C25.9886 5.99749 26.0171 5.94049 26.0517 5.94049C26.0862 5.94049 26.1156 5.85413 26.1156 5.74964C26.1156 5.64514 26.1441 5.55965 26.1786 5.55965C26.2132 5.55965 26.2425 5.50179 26.2425 5.43184C26.2425 5.36275 26.271 5.30489 26.3056 5.30489C26.3401 5.30489 26.3695 5.24789 26.3695 5.17794C26.3695 5.10885 26.398 5.05099 26.4325 5.05099C26.4671 5.05099 26.4964 4.99399 26.4964 4.92404C26.4964 4.85495 26.5249 4.79709 26.5595 4.79709C26.594 4.79709 26.6234 4.72455 26.6234 4.6356C26.6234 4.50088 26.727 4.30053 26.8022 4.29189C26.8446 4.3139 26.8824 4.3438 26.9136 4.37998L26.9127 4.38084Z" fill="#050038"/>
</g>
<defs>
<clipPath id="clip0_44_1878">
<rect width="131.266" height="19.8627" fill="white" transform="translate(0.733398 0.0922852)"/>
</clipPath>
</defs>
</svg>
