<svg width="104" height="29" viewBox="0 0 104 29" fill="none" xmlns="http://www.w3.org/2000/svg">
<g id="netflix-black 1" clip-path="url(#clip0_44_1880)">
<path id="Vector" d="M14.4713 26.6282C12.9124 26.8983 11.326 26.9793 9.68504 27.195L4.67976 12.7299V27.8158C3.12083 27.9777 1.69863 28.1936 0.22168 28.4095V0.774414H4.37908L10.0679 16.4543V0.774414H14.4713V26.6282ZM23.0867 10.8947C24.7827 10.8947 27.3809 10.8137 28.9398 10.8137V15.1316C26.9979 15.1316 24.7279 15.1316 23.0867 15.2125V21.6357C25.6578 21.4738 28.2288 21.2577 30.827 21.1767V25.3326L18.7106 26.2772V0.774414H30.827V5.0924H23.0867V10.8947ZM47.1006 5.09249H42.5604V24.9552C41.0835 24.9552 39.6065 24.9552 38.1845 25.009V5.09249H33.6444V0.774414H47.1007L47.1006 5.09249ZM54.2117 10.5979H60.2015V14.9158H54.2117V24.7123H49.9173V0.774414H62.1434V5.0924H54.2117V10.5979ZM69.2545 20.9339C71.7434 20.9878 74.2595 21.177 76.6939 21.3117V25.5757C72.7828 25.3327 68.8716 25.0901 64.8785 25.009V0.774414H69.2545V20.9339ZM80.3861 25.8727C81.781 25.9537 83.258 26.0347 84.6802 26.1964V0.774414H80.3861V25.8727ZM103.853 0.774414L98.3011 13.9173L103.853 28.4095C102.212 28.1936 100.571 27.8967 98.9298 27.6268L95.7845 19.6387L92.5849 26.9793C90.9985 26.7091 89.4665 26.6282 87.8809 26.4123L93.515 13.7552L88.4276 0.774414H93.1316L96.003 8.03403L99.0671 0.774414L103.853 0.774414Z" fill="#050038"/>
</g>
<defs>
<clipPath id="clip0_44_1880">
<rect width="103.631" height="27.635" fill="white" transform="translate(0.22168 0.774414)"/>
</clipPath>
</defs>
</svg>
